<svg xmlns="http://www.w3.org/2000/svg" viewBox="0 0 577.46 591.94"><defs><style>.cls-1{fill:none;}.cls-2{fill:#787878;}.cls-3{fill:#b4b4b4;}.cls-4{fill:#a0a0a0;}.cls-5{fill:#ef720e;}</style></defs><g id="Layer_2" data-name="Layer 2"><g id="svg2848"><path class="cls-1" d="M560,157.14q-11.4-11.38-33.71-14.41t-60.45-3h-93q-27.9,0-43,1.62t-22.09,8.84q-7,7.22-8.14,22.09t-1.16,41.85v223.2q0,27.9,1.16,43t8.14,22.09q7,7,22.09,8.13t43,1.17q27.9,0,43-.93t22.09-6q7-5.12,8.14-16.51t1.16-32.31q0-20.93.93-32.32t6-16.51q5.11-5.11,16.28-6t31.62-.93q24.64,0,39.52-3t22.79-14.41q7.9-11.39,10.46-33.48t2.56-60.68v-37.2q0-38.13-3-60.45T560,157.14ZM502.13,302.22q-.93,11.4-6,16.51t-16.51,6q-11.4.93-32.32.93h-37.2a130.74,130.74,0,0,1-19.53-1.17q-7.44-1.16-11.39-5.11T374,308a130.94,130.94,0,0,1-1.16-19.53v-37.2A130.94,130.94,0,0,1,374,231.78q1.16-7.44,5.12-11.4t11.39-5.11a132.31,132.31,0,0,1,19.53-1.16h37.2q20.92,0,32.32.93t16.51,6q5.1,5.13,6,16.51t.93,32.32Q503.06,290.84,502.13,302.22Z"/><path class="cls-2" d="M141.82,43.35a294.19,294.19,0,0,0-78,69.14,268.31,268.31,0,0,0,34.91-4.68A319.13,319.13,0,0,1,141.82,43.35Z"/><path class="cls-3" d="M242.71,27.53A267.39,267.39,0,0,0,264,1.7a294,294,0,0,0-95.56,27.23A319.21,319.21,0,0,1,242.71,27.53Z"/><path class="cls-2" d="M169.36,82.92,155.49,57.33a298.84,298.84,0,0,0-31.13,44A272.46,272.46,0,0,0,169.36,82.92Z"/><path class="cls-4" d="M172.87,48,186.59,73.3a270.52,270.52,0,0,0,37.28-27.49A299.69,299.69,0,0,0,172.87,48Z"/><path class="cls-3" d="M424.68,29.43A297.72,297.72,0,0,0,289,.08a290,290,0,0,1-22.72,30.68A318.76,318.76,0,0,1,393.36,82.94,424.15,424.15,0,0,0,424.68,29.43Z"/><path class="cls-2" d="M64.53,265.18A318.67,318.67,0,0,1,88.7,129.63a289.36,289.36,0,0,1-39.65,3.19A297.47,297.47,0,0,0,1.86,263.3,423.76,423.76,0,0,0,64.53,265.18Z"/><path class="cls-4" d="M282.6,125.84c10.48-10.83,25.11-17.32,43.48-19.3,11.47-1.24,26.76-1.83,46.78-1.83h4.43c1.53-1.95,3.07-3.89,4.56-5.86A298.84,298.84,0,0,0,250.26,48.06,288.67,288.67,0,0,1,196,90.6l63.3,116.82c1.42-.83,2.82-1.7,4.24-2.55.11-14.65.52-26.28,1.23-35.35C266.14,151.35,272.15,136.64,282.6,125.84Z"/><path class="cls-2" d="M84.07,263.85A421.54,421.54,0,0,0,242,217L178.76,100.27a289.83,289.83,0,0,1-66.84,24.85A298.53,298.53,0,0,0,84.07,263.85Z"/><path class="cls-3" d="M524,107.2a293.84,293.84,0,0,0-81.83-68.57A443.79,443.79,0,0,1,409.19,94.7q6.12,4.85,12,10h44.68C489.39,104.71,508.5,105.52,524,107.2Z"/><path class="cls-2" d="M102.13,401A312.43,312.43,0,0,1,66,284.86,444.26,444.26,0,0,1,.3,282.94,294.17,294.17,0,0,0,32.83,431.37,585.76,585.76,0,0,0,118,427.11Q109.51,414.56,102.13,401Z"/><path class="cls-2" d="M251.4,234.34A440.7,440.7,0,0,1,85.52,283.47a293.88,293.88,0,0,0,33.9,108.14A298.29,298.29,0,0,0,139.78,424a585.76,585.76,0,0,0,123.68-34.35v-133Z"/><path class="cls-2" d="M131.15,445.22a606.79,606.79,0,0,1-87.15,6A294.32,294.32,0,0,0,165.41,561.51a726.54,726.54,0,0,0,90.07-21.17A313.62,313.62,0,0,1,131.15,445.22Z"/><path class="cls-2" d="M264.72,483c-.85-11-1.26-26-1.26-45.68V410.83a604.06,604.06,0,0,1-109.92,30.81A295.24,295.24,0,0,0,284.91,530.7l1.42-.5c-1.14-1-2.25-2-3.32-3C272.3,516.45,266.15,501.58,264.72,483Z"/><path class="cls-3" d="M513.25,435A320.67,320.67,0,0,1,450,548.7,294.36,294.36,0,0,0,560.92,427.81a77.64,77.64,0,0,1-12.3,3.57C538.82,433.38,527.17,434.55,513.25,435Z"/><path class="cls-2" d="M285.42,551.32a746.83,746.83,0,0,1-87.25,23.93,295.25,295.25,0,0,0,225.58-12.34A320.18,320.18,0,0,1,285.42,551.32Z"/><path class="cls-5" d="M574.9,349.19q2.55-22.08,2.56-60.68v-37.2q0-38.13-3-60.45T560,157.14q-11.4-11.38-33.71-14.41t-60.45-3h-93q-27.9,0-43,1.62t-22.09,8.84q-7,7.22-8.14,22.09t-1.16,41.85v223.2q0,27.9,1.16,43t8.14,22.09q7,7,22.09,8.13t43,1.17q27.9,0,43-.93t22.09-6q7-5.12,8.14-16.51t1.16-32.31q0-20.93.93-32.32t6-16.51q5.11-5.11,16.28-6t31.62-.93q24.64,0,39.52-3t22.79-14.41Q572.35,371.29,574.9,349.19Zm-95.32-24.41q-11.4.93-32.32.93h-37.2a130.74,130.74,0,0,1-19.53-1.17q-7.44-1.16-11.39-5.11T374,308a130.94,130.94,0,0,1-1.16-19.53v-37.2A130.94,130.94,0,0,1,374,231.78q1.16-7.44,5.12-11.4t11.39-5.11a132.31,132.31,0,0,1,19.53-1.16h37.2q20.92,0,32.32.93t16.51,6q5.1,5.13,6,16.51t.93,32.32q0,20.93-.93,32.31t-6,16.51Q491,323.86,479.58,324.78Z"/></g></g></svg>