<svg xmlns="http://www.w3.org/2000/svg" viewBox="0 0 660.2 660.2"><defs><style>.cls-1{fill:#a0a0a0;}.cls-2{fill:#b4b4b4;}.cls-3{fill:#bebebe;}.cls-4{fill:#787878;}.cls-5{fill:#548ada;}.cls-6{fill:#9468d8;}.cls-7{fill:none;}</style></defs><g id="Layer_2" data-name="Layer 2"><g id="svg2848"><path class="cls-1" d="M207,82.18l13.72,25.31A270.26,270.26,0,0,0,258,80,299.49,299.49,0,0,0,207,82.18Z"/><path class="cls-1" d="M230.08,124.78l63.29,116.8q15.63-9.17,30.2-19.45a29.56,29.56,0,0,1,3.81-8,28.84,28.84,0,0,1,16.69-11.46,46.39,46.39,0,0,1,6.54-1.25A420.53,420.53,0,0,0,415.93,133,298.59,298.59,0,0,0,284.37,82.26,288.18,288.18,0,0,1,230.08,124.78Z"/><path class="cls-1" d="M502.66,444.18c-4.06-5.82-6.32-13.15-6.91-22.4-.4-6.25-.59-14.34-.59-24.7v-67a59.18,59.18,0,0,1,.71-9.48,605.52,605.52,0,0,1-73.2,58.72h22.77c6.08,0,11.05.16,15.17.47a34.83,34.83,0,0,1,17.14,5.54,28.76,28.76,0,0,1,11.45,16.7c1.27,4.63,1.88,10.4,1.88,17.63s-.63,13.06-1.92,17.65a28.77,28.77,0,0,1-11.4,16.4c-4.78,3.25-10.7,5.08-17.61,5.43-3.94.2-8.76.3-14.71.3h-34l27.49,50.73a741.21,741.21,0,0,0,81.45-53.47A32.65,32.65,0,0,1,502.66,444.18Z"/><path class="cls-1" d="M320.32,291.32c.11-.12.22-.23.34-.34h0a6.63,6.63,0,0,0,.63-1.19,18.33,18.33,0,0,0,.37-4.34v-38.2q-9.26,6-18.9,11.67Z"/><path class="cls-1" d="M431.68,144.76a439.29,439.29,0,0,1-52.6,57.82l.27.07a28.85,28.85,0,0,1,16.41,11.4,34.81,34.81,0,0,1,5.55,17.16c.31,4.11.47,9.07.47,15.17V363.59c0,2.1,0,4.05,0,5.89a585.65,585.65,0,0,0,106-88.62H485c-5.27,0-9.57-.1-13.17-.31a32.09,32.09,0,0,1-17.09-5.64c-3.8-2.72-8.78-7.87-11-17a73.62,73.62,0,0,1-1.62-17.14,71.92,71.92,0,0,1,1.65-17.15A28.36,28.36,0,0,1,454.71,207a33,33,0,0,1,16.63-5.76c3.77-.33,8.24-.48,13.65-.48h.25A293.1,293.1,0,0,0,431.68,144.76Z"/><path class="cls-1" d="M448.33,527.58l22.2,41a299.78,299.78,0,0,0,52.61-89.36A754.35,754.35,0,0,1,448.33,527.58Z"/><path class="cls-2" d="M618.12,280.55c-3.58.21-7.88.31-13.13.31-2.77,0-5.23,0-7.35.08,0,1.38,0,2.88,0,4.51V389.06q13.83-13.9,26.81-28.46a294.1,294.1,0,0,0-2.62-80.45C620.6,280.33,619.38,280.48,618.12,280.55Z"/><path class="cls-2" d="M597.26,417c-.07,1.7-.16,3.3-.25,4.8-.59,9.12-2.73,16.35-6.57,22.1-3.2,4.81-9.41,11.07-20.79,13.62a99.32,99.32,0,0,1-19.51,1.93,320.49,320.49,0,0,1-66.09,123.33A295.21,295.21,0,0,0,618.54,395.82Q608.15,406.59,597.26,417Z"/><path class="cls-3" d="M509.26,200.74h61.9q7-10.61,13.47-21.48A294,294,0,0,0,476.2,72.83a441.59,441.59,0,0,1-32.94,56.05A311.49,311.49,0,0,1,509.26,200.74Z"/><path class="cls-3" d="M458.74,63.64A297.52,297.52,0,0,0,323.09,34.29,289.83,289.83,0,0,1,300.38,65a318.51,318.51,0,0,1,127.05,52.17A423.35,423.35,0,0,0,458.74,63.64Z"/><path class="cls-2" d="M276.83,61.74A268.76,268.76,0,0,0,298.1,35.91a294.08,294.08,0,0,0-95.53,27.22A319.57,319.57,0,0,1,276.83,61.74Z"/><path class="cls-4" d="M206,451.94a30.77,30.77,0,0,1-7.9-8.06c-3.84-5.74-6-13-6.57-22.1-.39-6.24-.59-14.32-.59-24.7V305.17q-4.59,1.2-9.18,2.29V413.82c0,6.11-.16,11.08-.47,15.18a34.76,34.76,0,0,1-5.54,17.14,27.37,27.37,0,0,1-5.89,6.22c1.33,1.92,2.66,3.84,4,5.73Q190,455.48,206,451.94Z"/><path class="cls-4" d="M130.34,200.74h56c16.75,0,29.62.48,39.35,1.49,13,1.34,23.28,5.55,30.54,12.5l.25.25-43.63-80.53a289.19,289.19,0,0,1-66.82,24.84A300.26,300.26,0,0,0,130.34,200.74Z"/><path class="cls-4" d="M319,564.77a735.34,735.34,0,0,0,102.61-45.08L389,459.46H384c-11.28,0-20.91-.09-28.61-.28a101.31,101.31,0,0,1-23-2.8c-8.11-2.09-14.68-5.63-19.54-10.5a33.53,33.53,0,0,1-4.31-5.31q-15.07,6.15-30.32,11.43a35.68,35.68,0,0,1-12.8,5.5,71.08,71.08,0,0,1-7.89,1.26,604,604,0,0,1-69.89,17A295,295,0,0,0,319,564.77Z"/><path class="cls-4" d="M453.22,578,431,537a757.89,757.89,0,0,1-79.53,36.7A299.62,299.62,0,0,0,453.22,578Z"/><path class="cls-4" d="M190.22,278.19c-1.16-.08-2.45-.12-3.84-.12s-2.92,0-4.17.09q-.32,3.66-.39,9c3-.76,6-1.55,9-2.37A60.21,60.21,0,0,0,190.22,278.19Z"/><path class="cls-4" d="M292.82,421.78c-.09,1.37-.21,2.7-.37,4q4.51-1.77,9-3.6a111.65,111.65,0,0,1-1.85-18.81c-.19-7.67-.29-17.3-.29-28.61V330.1c0-7.06,1-12.89,3-17.8a43.5,43.5,0,0,1,3.37-6.52l-20.21-37.3q-7.18,3.79-14.45,7.28c0,2.22,0,4.51,0,6.9,0,4.55.55,6.34.66,6.65a10.59,10.59,0,0,0,1.43,2.93,27.07,27.07,0,0,0,3.2,3.47,75.85,75.85,0,0,1,6.91,7.09,42.31,42.31,0,0,1,7.25,12.38,48.48,48.48,0,0,1,2.88,17.71v64.19C293.42,407.41,293.22,415.49,292.82,421.78Z"/><path class="cls-4" d="M268.12,236.4a64.28,64.28,0,0,1,1.47,8.5q.45,4.18.77,9.21c1.92-1,3.84-2,5.75-3Z"/><path class="cls-4" d="M203.49,117.11,189.63,91.53a299.2,299.2,0,0,0-31.13,44A271.09,271.09,0,0,0,203.49,117.11Z"/><path class="cls-4" d="M97.08,278.07c-1.42,0-2.7,0-3.84.11A81.88,81.88,0,0,0,92.48,291v8.51q3.1-.09,6.21-.22-.45-10.63-.18-21.24Z"/><path class="cls-4" d="M150.71,459.06c-2.71.27-5.69.4-9,.4a67.8,67.8,0,0,1-17.64-1.88,28.75,28.75,0,0,1-16.69-11.44c-3.25-4.77-5.08-10.69-5.43-17.61-.2-3.92-.3-8.73-.3-14.71V330.94q-.87-6-1.51-11.95-3.84.18-7.68.28v94.55c0,6.11-.15,11.07-.47,15.18a34.63,34.63,0,0,1-5.54,17.14,28.75,28.75,0,0,1-16.4,11.4,45.54,45.54,0,0,1-6.38,1.27c1.07,2.22,2.17,4.45,3.31,6.66a588.39,588.39,0,0,0,85.12-4.26C151.64,460.5,151.18,459.78,150.71,459.06Z"/><path class="cls-4" d="M165.29,479.31a605,605,0,0,1-87.13,6A294.29,294.29,0,0,0,199.54,595.57a725.82,725.82,0,0,0,90-21.17A313.45,313.45,0,0,1,165.29,479.31Z"/><path class="cls-4" d="M319.52,585.39a745.92,745.92,0,0,1-87.23,23.92A295.19,295.19,0,0,0,457.81,597,320.15,320.15,0,0,1,319.52,585.39Z"/><path class="cls-4" d="M176,77.55a294.21,294.21,0,0,0-78,69.12,266.23,266.23,0,0,0,34.9-4.68A319.37,319.37,0,0,1,176,77.55Z"/><path class="cls-4" d="M68,201.32c7.94-.39,17.72-.58,29.06-.58h13a322.16,322.16,0,0,1,12.76-36.93A287.76,287.76,0,0,1,83.22,167,295.59,295.59,0,0,0,63.61,201.6C65,201.49,66.5,201.39,68,201.32Z"/><path class="cls-5" d="M186.38,218.47q24,0,37.53,1.4t20.1,7.67q6.56,6.28,8,19.26a355.17,355.17,0,0,1,1.4,35.86A38.59,38.59,0,0,0,255,295.22a27.83,27.83,0,0,0,4.19,7.95,44.25,44.25,0,0,0,5.3,5.72,58.07,58.07,0,0,1,5.3,5.44,24.91,24.91,0,0,1,4.19,7.26,32,32,0,0,1,1.67,11.3v64.19q0,14.79-.56,23.58t-3.62,13.39q-3.08,4.6-9.91,6.14t-19.4,1.54q-12.56,0-19.39-1.54t-9.91-6.14q-3.07-4.6-3.63-13.39t-.56-23.58V291a96.84,96.84,0,0,0-1.11-16.47q-1.12-6.13-3.77-9.35a11.65,11.65,0,0,0-7-4,55.77,55.77,0,0,0-10.46-.84,65.71,65.71,0,0,0-11.72.84,10.57,10.57,0,0,0-6.84,4q-2.37,3.23-3.07,9.35a151.84,151.84,0,0,0-.7,16.47V413.82c0,5.58-.13,10.19-.42,13.82a17.29,17.29,0,0,1-2.51,8.51,11.23,11.23,0,0,1-6.55,4.32,50,50,0,0,1-12.84,1.26,51.75,51.75,0,0,1-13-1.26,11.33,11.33,0,0,1-6.7-4.32,16.53,16.53,0,0,1-2.37-8.51q-.29-5.44-.28-13.82V291a151.84,151.84,0,0,0-.7-16.47c-.46-4.09-1.49-7.2-3.06-9.35a10.62,10.62,0,0,0-6.84-4,65.87,65.87,0,0,0-11.72-.84,55.42,55.42,0,0,0-10.61.84,11.54,11.54,0,0,0-6.83,4q-2.67,3.23-3.77,9.35A95.66,95.66,0,0,0,74.75,291V413.82q0,8.37-.42,13.82a17.5,17.5,0,0,1-2.51,8.51,11.25,11.25,0,0,1-6.56,4.32,50,50,0,0,1-12.84,1.26,51.67,51.67,0,0,1-13-1.26,11.33,11.33,0,0,1-6.7-4.32,16.53,16.53,0,0,1-2.37-8.51q-.28-5.44-.28-13.82V288.24q0-16.74.28-28.47a88.84,88.84,0,0,1,2.23-19.39,28.94,28.94,0,0,1,5.86-12.14c2.6-3,6.42-5.17,11.44-6.56a88.19,88.19,0,0,1,19-2.65q11.44-.56,28.19-.56Z"/><path class="cls-5" d="M317.07,330.1a29.65,29.65,0,0,1,1.67-11,21.64,21.64,0,0,1,4.19-6.7,34.94,34.94,0,0,1,5.3-4.61,34.32,34.32,0,0,0,5.3-4.6,21.64,21.64,0,0,0,4.19-6.7q1.66-4,1.67-11V246.38q0-8.37.28-13.82a16.63,16.63,0,0,1,2.37-8.51,11.33,11.33,0,0,1,6.7-4.32,51.75,51.75,0,0,1,13-1.26,50,50,0,0,1,12.84,1.26,11.23,11.23,0,0,1,6.55,4.32,17.39,17.39,0,0,1,2.52,8.51q.42,5.44.41,13.82V363.59q0,12.56.56,19.39t3.63,9.91q3.07,3.08,9.91,3.63t19.39.56h27.91q8.37,0,13.81.41a17.4,17.4,0,0,1,8.52,2.52,11.32,11.32,0,0,1,4.32,6.7,51.61,51.61,0,0,1,1.26,13,50,50,0,0,1-1.26,12.84,11.3,11.3,0,0,1-4.32,6.56,16.54,16.54,0,0,1-8.52,2.37q-5.43.29-13.81.28H384q-16.74,0-28.18-.28a85.39,85.39,0,0,1-19-2.23q-7.53-2-11.44-5.86t-5.86-11.45a85.29,85.29,0,0,1-2.23-19q-.28-11.44-.28-28.19Z"/><path class="cls-6" d="M605,218.47q7.25,0,12.13.42a15.6,15.6,0,0,1,7.82,2.51,11,11,0,0,1,4,6.56,55.87,55.87,0,0,1,1.12,12.84,57.68,57.68,0,0,1-1.12,13,11,11,0,0,1-4,6.7,14.58,14.58,0,0,1-7.82,2.37q-4.87.29-12.13.28-9.5,0-14.52.42t-7.39,2.51q-2.37,2.1-2.79,6.56t-.42,12.84V397.08q0,14.79-.56,23.58t-3.63,13.39q-3.07,4.6-9.91,6.14t-19.39,1.54q-12.55,0-19.26-1.54c-4.46-1-7.77-3.07-9.9-6.14s-3.4-7.53-3.77-13.39-.56-13.72-.56-23.58v-67q0-7,1.68-11a21.62,21.62,0,0,1,4.18-6.7,35.43,35.43,0,0,1,5.3-4.61,34.85,34.85,0,0,0,5.31-4.6,21.62,21.62,0,0,0,4.18-6.7q1.68-4,1.68-11,0-8.37-.42-12.84t-2.51-6.56q-2.1-2.08-6.56-2.51t-12.84-.42H485q-7.26,0-12.15-.28a14.6,14.6,0,0,1-7.81-2.37,11.1,11.1,0,0,1-4-6.7,58.39,58.39,0,0,1-1.11-13A56.54,56.54,0,0,1,461,228a11,11,0,0,1,4-6.56,15.63,15.63,0,0,1,7.81-2.51q4.89-.42,12.15-.42Z"/><rect class="cls-7" width="660.2" height="660.2"/></g></g></svg>