<svg xmlns="http://www.w3.org/2000/svg" viewBox="0 0 977.28 339.66"><defs><style>.cls-1{fill:#787878;}.cls-2{fill:#b4b4b4;}.cls-3{fill:#bebebe;}.cls-4{fill:#a0a0a0;}.cls-5{fill:#548ada;}.cls-6{fill:#9468d8;}</style></defs><g id="Layer_2" data-name="Layer 2"><g id="svg2848"><path class="cls-1" d="M42.38,122.3c0-5,0-9.4.11-13.11q-4.6.68-9.22,1.1A113.88,113.88,0,0,0,42.38,144Z"/><path class="cls-1" d="M32.71,102.65c3.4-.31,6.81-.74,10.21-1.27a40.71,40.71,0,0,1,1-5.75,22.88,22.88,0,0,1,4.75-9.56,19.71,19.71,0,0,1,9.79-5.82A53.51,53.51,0,0,1,70,78.6c4.08-.2,9.1-.3,14.94-.3h5.9L69.55,39a112.48,112.48,0,0,1-26,9.67A116.18,116.18,0,0,0,32.71,102.65Z"/><path class="cls-1" d="M88.62,194.63c-.11-2-.16-4.47-.16-7.53V164.74c-2.34.73-4.69,1.44-7,2.1V187.1c0,1.64,0,3.11-.07,4.45q3.63,2.55,7.43,4.8C88.71,195.79,88.65,195.22,88.62,194.63Z"/><path class="cls-1" d="M148.06,208.52a16.09,16.09,0,0,1-9-5.2q-7.73,3.57-15.57,6.65a116.75,116.75,0,0,0,39.59,1.66l-1.17-2.15-2.09,0A55.59,55.59,0,0,1,148.06,208.52Z"/><path class="cls-1" d="M134.85,191.14c-.21-3.2-.31-7.34-.31-12.68V159l-6-11-1.07.56V187.1c0,3.11-.08,5.65-.24,7.74a18.8,18.8,0,0,1-1.35,5.87q4.89-2,9.74-4.28A28.28,28.28,0,0,1,134.85,191.14Z"/><path class="cls-1" d="M88.46,123.74a71,71,0,0,0-.31-7.6V116c-.78-.07-1.82-.12-3.2-.12A25.57,25.57,0,0,0,82,116c-.05.17-.09.38-.14.63a41.72,41.72,0,0,0-.45,7.07v35.12c2.36-.69,4.7-1.42,7-2.19Z"/><path class="cls-1" d="M25.1,103.17a123.93,123.93,0,0,1,9.41-52.73,112.85,112.85,0,0,1-15.43,1.23A115.85,115.85,0,0,0,.72,102.44,163.82,163.82,0,0,0,25.1,103.17Z"/><path class="cls-1" d="M80.13,199.92a14,14,0,0,1-1.61,3.21,13.74,13.74,0,0,1-7.83,5.43,33.38,33.38,0,0,1-8.79.94,33.77,33.77,0,0,1-8.8-.93,13.68,13.68,0,0,1-8-5.45,16.12,16.12,0,0,1-2.6-8.49c-.11-2-.16-4.47-.16-7.53V174.28a237.63,237.63,0,0,1-25.26,1.26,114.55,114.55,0,0,0,47.23,42.92,281.25,281.25,0,0,0,35.05-8.24A122.17,122.17,0,0,1,80.13,199.92Z"/><path class="cls-1" d="M42.38,160.62c-.91-1.52-1.8-3.05-2.64-4.62a121.25,121.25,0,0,1-14.06-45.17,172.85,172.85,0,0,1-25.56-.75,114.48,114.48,0,0,0,12.65,57.75,227.63,227.63,0,0,0,29.61-1.26Z"/><path class="cls-1" d="M55.17,16.87a114.68,114.68,0,0,0-30.36,26.9A105,105,0,0,0,38.4,42,124.5,124.5,0,0,1,55.17,16.87Z"/><path class="cls-1" d="M111.05,214.5a291.78,291.78,0,0,1-33.95,9.31,114.87,114.87,0,0,0,87.76-4.8A124.68,124.68,0,0,1,111.05,214.5Z"/><path class="cls-1" d="M65.89,32.26,60.5,22.31A116.37,116.37,0,0,0,48.38,39.43,106.41,106.41,0,0,0,65.89,32.26Z"/><path class="cls-2" d="M94.43,10.71a105.14,105.14,0,0,0,8.28-10,114.4,114.4,0,0,0-37.18,10.6A124.35,124.35,0,0,1,94.43,10.71Z"/><path class="cls-2" d="M199.88,96.35a23.08,23.08,0,0,1,5.76-10.3c3.61-3.61,8.63-5.87,14.94-6.74,1.2-.16,2.49-.3,3.87-.43a115.84,115.84,0,0,0-6-14.69,236.68,236.68,0,0,1-20,27.56C198.9,93.27,199.4,94.81,199.88,96.35Z"/><path class="cls-3" d="M190.59,74.27q2.5,4.62,4.58,9.36a228,228,0,0,0,19-27.18A114.35,114.35,0,0,0,172,15,172,172,0,0,1,159.2,36.84,121.68,121.68,0,0,1,190.59,74.27Z"/><path class="cls-3" d="M165.22,11.45A115.85,115.85,0,0,0,112.43,0,112.8,112.8,0,0,1,103.6,12,124,124,0,0,1,153,32.27,164,164,0,0,0,165.22,11.45Z"/><path class="cls-2" d="M189.06,193.65a124.23,124.23,0,0,1-14,19.83,114.64,114.64,0,0,0,17.68-13.24A23.29,23.29,0,0,1,189.06,193.65Z"/><path class="cls-4" d="M76.24,35.25,99.57,78.3h5.25a163.47,163.47,0,0,0,43.74-39.84A116.13,116.13,0,0,0,97.37,18.7,112.72,112.72,0,0,1,76.24,35.25Z"/><path class="cls-4" d="M67.26,18.67l5.33,9.85A105.32,105.32,0,0,0,87.1,17.82,116.82,116.82,0,0,0,67.26,18.67Z"/><path class="cls-4" d="M154.69,43A170.66,170.66,0,0,1,118.57,78.3H131c8.6,0,15.21.25,20.19.76,6.45.67,11.52,2.74,15.08,6.14s5.84,8.49,6.53,14.86q.31,3,.5,6.84A228.47,228.47,0,0,0,189.6,90.22a116.83,116.83,0,0,0-5.76-12.29A114.23,114.23,0,0,0,154.69,43Z"/><path class="cls-4" d="M173.57,117c0,.8,0,1.61,0,2.44a12.15,12.15,0,0,0,.41,3.82,6.41,6.41,0,0,0,.91,1.83,15.4,15.4,0,0,0,1.79,1.94,37.43,37.43,0,0,1,3.46,3.55,20.73,20.73,0,0,1,3.55,6.06,24.09,24.09,0,0,1,1.4,8.72v22.13l1.28-.95V143.9a22.68,22.68,0,0,1,1.47-8.74,19.19,19.19,0,0,1,3.74-5.9,27,27,0,0,1,4-3.43,10.18,10.18,0,0,0,1.52-1.32,3.23,3.23,0,0,0,.31-.47,114.48,114.48,0,0,0-4.86-25.61A232.27,232.27,0,0,1,173.57,117Z"/><path class="cls-4" d="M134,116.05a25.85,25.85,0,0,0-2.94-.15c-1.38,0-2.42,0-3.19.12,0,0,0,.08,0,.12a73.3,73.3,0,0,0-.31,7.6v6.12l4.13,7.62c1-.56,2-1.14,2.91-1.71v-12a40.82,40.82,0,0,0-.45-7.07C134.05,116.43,134,116.22,134,116.05Z"/><path class="cls-4" d="M186.53,175.85l-1.43,1v1.6q0,3.61-.06,6.6c.62-1.22,1.22-2.45,1.79-3.69C186.71,179.66,186.6,177.83,186.53,175.85Z"/><path class="cls-5" d="M131.59,86.74q12.39,0,19.37.72t10.37,4q3.38,3.24,4.1,9.94a183.22,183.22,0,0,1,.72,18.5,20.1,20.1,0,0,0,.86,6.48,14.58,14.58,0,0,0,2.16,4.11,24.32,24.32,0,0,0,2.74,3,30.38,30.38,0,0,1,2.74,2.81,12.81,12.81,0,0,1,2.16,3.74,16.57,16.57,0,0,1,.86,5.83V178.9q0,7.64-.29,12.17a14.07,14.07,0,0,1-1.87,6.91,7.89,7.89,0,0,1-5.11,3.17,48.37,48.37,0,0,1-10,.79,48.3,48.3,0,0,1-10-.79,7.89,7.89,0,0,1-5.11-3.17,14.07,14.07,0,0,1-1.87-6.91q-.3-4.53-.29-12.17V124.18a48.87,48.87,0,0,0-.58-8.49,10.5,10.5,0,0,0-1.94-4.83,6,6,0,0,0-3.6-2.09,29.65,29.65,0,0,0-5.4-.43,34.89,34.89,0,0,0-6,.43,5.49,5.49,0,0,0-3.53,2.09,10.13,10.13,0,0,0-1.58,4.83,78.81,78.81,0,0,0-.36,8.49v63.36q0,4.32-.22,7.13a8.92,8.92,0,0,1-1.29,4.39,5.78,5.78,0,0,1-3.39,2.23,25.44,25.44,0,0,1-6.62.65,26.45,26.45,0,0,1-6.7-.65,5.81,5.81,0,0,1-3.45-2.23,8.54,8.54,0,0,1-1.23-4.39q-.14-2.8-.14-7.13V124.18a78.81,78.81,0,0,0-.36-8.49,10.13,10.13,0,0,0-1.58-4.83,5.49,5.49,0,0,0-3.53-2.09,34.89,34.89,0,0,0-6-.43,29.32,29.32,0,0,0-5.47.43,6,6,0,0,0-3.53,2.09,10.5,10.5,0,0,0-1.94,4.83,48.87,48.87,0,0,0-.58,8.49v63.36q0,4.32-.22,7.13a8.92,8.92,0,0,1-1.29,4.39,5.78,5.78,0,0,1-3.39,2.23,25.44,25.44,0,0,1-6.62.65,26.45,26.45,0,0,1-6.7-.65,5.81,5.81,0,0,1-3.45-2.23,8.54,8.54,0,0,1-1.23-4.39q-.14-2.8-.14-7.13v-64.8q0-8.64.14-14.69a45.58,45.58,0,0,1,1.16-10,14.94,14.94,0,0,1,3-6.27,11.82,11.82,0,0,1,5.9-3.38A45.66,45.66,0,0,1,71,87q5.9-.28,14.54-.29Z"/><path class="cls-5" d="M195,144.34a15.4,15.4,0,0,1,.86-5.69A11.29,11.29,0,0,1,198,135.2a18.91,18.91,0,0,1,2.74-2.38,17.69,17.69,0,0,0,2.73-2.37A11,11,0,0,0,205.6,127a15.14,15.14,0,0,0,.87-5.69,147.59,147.59,0,0,1,.93-18.72c.63-4.61,2.12-8.08,4.47-10.44s5.81-3.84,10.37-4.46A146.76,146.76,0,0,1,241,86.74h20.16c2.88,0,5.25.07,7.13.22a9,9,0,0,1,4.39,1.29,5.83,5.83,0,0,1,2.23,3.39,25.94,25.94,0,0,1,.65,6.62,26.92,26.92,0,0,1-.65,6.7,5.85,5.85,0,0,1-2.23,3.45,8.57,8.57,0,0,1-4.39,1.23c-1.88.1-4.25.14-7.13.14h-14.4q-6.48,0-10,.22a10.42,10.42,0,0,0-5.11,1.29,4.52,4.52,0,0,0-1.87,3.39,55.4,55.4,0,0,0-.29,6.62,57.5,57.5,0,0,0,.29,6.7,4.57,4.57,0,0,0,1.87,3.45,10.07,10.07,0,0,0,5.11,1.23q3.53.13,10,.14h14.4c2.88,0,5.25.07,7.13.22a9,9,0,0,1,4.39,1.29,5.88,5.88,0,0,1,2.23,3.46,26.86,26.86,0,0,1,.65,6.7,25.89,25.89,0,0,1-.65,6.62,5.8,5.8,0,0,1-2.23,3.38,8.57,8.57,0,0,1-4.39,1.23c-1.88.1-4.25.14-7.13.14h-14.4q-6.48,0-10,.22a10.42,10.42,0,0,0-5.11,1.29,4.52,4.52,0,0,0-1.87,3.39,55.4,55.4,0,0,0-.29,6.62,57.5,57.5,0,0,0,.29,6.7,4.57,4.57,0,0,0,1.87,3.45,10.07,10.07,0,0,0,5.11,1.23c2.35.1,5.69.14,10,.14h14.4c2.88,0,5.25.07,7.13.22a9,9,0,0,1,4.39,1.29,5.88,5.88,0,0,1,2.23,3.46,26.86,26.86,0,0,1,.65,6.7,25.89,25.89,0,0,1-.65,6.62,5.8,5.8,0,0,1-2.23,3.38,8.57,8.57,0,0,1-4.39,1.23c-1.88.1-4.25.14-7.13.14H229.51a147.09,147.09,0,0,1-18.79-.93c-4.56-.63-8-2.11-10.37-4.47s-3.84-5.8-4.47-10.37a147.09,147.09,0,0,1-.93-18.79Z"/><path class="cls-5" d="M362,86.74q3.74,0,6.26.22a8,8,0,0,1,4,1.29,5.63,5.63,0,0,1,2.09,3.39,29.16,29.16,0,0,1,.58,6.62,30.27,30.27,0,0,1-.58,6.7,5.66,5.66,0,0,1-2.09,3.45,7.58,7.58,0,0,1-4,1.23c-1.68.1-3.77.14-6.26.14-3.27,0-5.76.07-7.49.22a6.51,6.51,0,0,0-3.82,1.29,5,5,0,0,0-1.44,3.39c-.14,1.54-.21,3.74-.21,6.62v57.6q0,7.64-.29,12.17a14.18,14.18,0,0,1-1.87,6.91,7.89,7.89,0,0,1-5.12,3.17,48.19,48.19,0,0,1-10,.79,47.29,47.29,0,0,1-9.94-.79A8.12,8.12,0,0,1,316.7,198a13.52,13.52,0,0,1-1.94-6.91q-.3-4.53-.29-12.17V144.34a15.4,15.4,0,0,1,.86-5.69,11.29,11.29,0,0,1,2.16-3.45,18.91,18.91,0,0,1,2.74-2.38,17.69,17.69,0,0,0,2.73-2.37,11,11,0,0,0,2.16-3.46,15.14,15.14,0,0,0,.87-5.69c0-2.88-.07-5.08-.22-6.62a4.43,4.43,0,0,0-4.68-4.68c-1.54-.15-3.74-.22-6.62-.22h-14.4c-2.5,0-4.59,0-6.27-.14a7.6,7.6,0,0,1-4-1.23,5.71,5.71,0,0,1-2.09-3.45,30.38,30.38,0,0,1-.57-6.7,29.27,29.27,0,0,1,.57-6.62,5.67,5.67,0,0,1,2.09-3.39,8,8,0,0,1,4-1.29q2.52-.22,6.27-.22Z"/><path class="cls-5" d="M386.47,147.22a17,17,0,0,1,.86-5.9,16.23,16.23,0,0,1,2.16-4,21.32,21.32,0,0,1,2.74-3,20.6,20.6,0,0,0,2.73-3,15.77,15.77,0,0,0,2.16-4,17,17,0,0,0,.87-5.91,147.59,147.59,0,0,1,.93-18.72c.63-4.61,2.11-8.08,4.47-10.44s5.8-3.84,10.36-4.46a147,147,0,0,1,18.8-.94h8.64a147.28,147.28,0,0,1,18.72.94c4.61.62,8.08,2.11,10.44,4.46s3.84,5.83,4.46,10.44a147.28,147.28,0,0,1,.94,18.72,17.25,17.25,0,0,0,.86,5.91,16.41,16.41,0,0,0,2.16,4,20.65,20.65,0,0,0,2.74,3,20.69,20.69,0,0,1,2.73,3,15.6,15.6,0,0,1,2.16,4,16.93,16.93,0,0,1,.87,5.9V178.9q0,8.07-.29,12.67a13.9,13.9,0,0,1-1.87,6.92,7.32,7.32,0,0,1-5.11,2.88,66.94,66.94,0,0,1-10,.57,62.87,62.87,0,0,1-9.15-.5,7.67,7.67,0,0,1-4.75-2.23,8.58,8.58,0,0,1-1.73-5.19q-.21-3.45-.21-9.36v-3.45q0-5.76-.29-9.08a8.4,8.4,0,0,0-1.87-5,8.07,8.07,0,0,0-5.12-2.16,116.61,116.61,0,0,0-20,0,8,8,0,0,0-5.11,2.16,8.4,8.4,0,0,0-1.88,5q-.28,3.31-.28,9.08v3.45q0,5.91-.22,9.36a8.51,8.51,0,0,1-1.73,5.19,7.67,7.67,0,0,1-4.75,2.23,62.8,62.8,0,0,1-9.14.5,66.84,66.84,0,0,1-10-.57,7.3,7.3,0,0,1-5.11-2.88c-1.06-1.54-1.68-3.84-1.88-6.92s-.28-7.29-.28-12.67Zm33.12-21.6q0,6.48.28,10c.2,2.35.82,4.06,1.88,5.11s2.76,1.68,5.11,1.87,5.69.29,10,.29,7.65-.09,10-.29,4.06-.81,5.12-1.87a8,8,0,0,0,1.87-5.11q.28-3.52.29-10c0-4.32-.1-7.65-.29-10a6.46,6.46,0,0,0-7-7q-3.53-.28-10-.29t-10,.29a8,8,0,0,0-5.11,1.87c-1.06,1.06-1.68,2.76-1.88,5.11S419.59,121.3,419.59,125.62Z"/><path class="cls-5" d="M504.54,144.34a15.17,15.17,0,0,1,.87-5.69,11.29,11.29,0,0,1,2.16-3.45,17.91,17.91,0,0,1,2.74-2.38,18.17,18.17,0,0,0,2.73-2.37A11.16,11.16,0,0,0,515.2,127a15.14,15.14,0,0,0,.87-5.69V101.14c0-2.88,0-5.25.14-7.13a8.47,8.47,0,0,1,1.22-4.39,5.88,5.88,0,0,1,3.46-2.23,26.83,26.83,0,0,1,6.69-.65,26,26,0,0,1,6.63.65,5.83,5.83,0,0,1,3.38,2.23,9,9,0,0,1,1.3,4.39c.14,1.88.22,4.25.22,7.13v60.48q0,6.48.28,10c.19,2.35.82,4.06,1.88,5.11s2.75,1.68,5.11,1.87,5.69.29,10,.29h14.4c2.87,0,5.25.07,7.12.22a9,9,0,0,1,4.4,1.29,5.88,5.88,0,0,1,2.23,3.46,26.86,26.86,0,0,1,.65,6.7,25.89,25.89,0,0,1-.65,6.62,5.8,5.8,0,0,1-2.23,3.38,8.57,8.57,0,0,1-4.4,1.23c-1.87.1-4.25.14-7.12.14H539.11q-8.64,0-14.55-.14a44.48,44.48,0,0,1-9.79-1.15,10.84,10.84,0,0,1-8.93-8.93,44,44,0,0,1-1.15-9.79q-.15-5.91-.15-14.55Z"/><path class="cls-5" d="M596.71,144.34a15.2,15.2,0,0,1,.86-5.69,11.29,11.29,0,0,1,2.16-3.45,17.91,17.91,0,0,1,2.74-2.38,18.17,18.17,0,0,0,2.73-2.37,11,11,0,0,0,2.16-3.46,15.14,15.14,0,0,0,.87-5.69,147.59,147.59,0,0,1,.93-18.72c.63-4.61,2.11-8.08,4.46-10.44s5.81-3.84,10.37-4.46a147,147,0,0,1,18.8-.94H663q4.32,0,7.12.22a9,9,0,0,1,4.4,1.29,5.83,5.83,0,0,1,2.23,3.39,25.94,25.94,0,0,1,.65,6.62,26.92,26.92,0,0,1-.65,6.7,5.85,5.85,0,0,1-2.23,3.45,8.57,8.57,0,0,1-4.4,1.23c-1.87.1-4.24.14-7.12.14h-14.4q-6.48,0-10,.22a10.39,10.39,0,0,0-5.11,1.29,4.56,4.56,0,0,0-1.88,3.39,58.08,58.08,0,0,0-.28,6.62,60.29,60.29,0,0,0,.28,6.7,4.61,4.61,0,0,0,1.88,3.45,10,10,0,0,0,5.11,1.23q3.53.13,10,.14H663q4.32,0,7.12.22a9,9,0,0,1,4.4,1.29,5.88,5.88,0,0,1,2.23,3.46,26.86,26.86,0,0,1,.65,6.7,25.89,25.89,0,0,1-.65,6.62,5.8,5.8,0,0,1-2.23,3.38,8.57,8.57,0,0,1-4.4,1.23c-1.87.1-4.24.14-7.12.14h-14.4q-6.48,0-10,.22a10.39,10.39,0,0,0-5.11,1.29,4.56,4.56,0,0,0-1.88,3.39,58.08,58.08,0,0,0-.28,6.62,60.29,60.29,0,0,0,.28,6.7,4.61,4.61,0,0,0,1.88,3.45,10,10,0,0,0,5.11,1.23c2.35.1,5.69.14,10,.14H663q4.32,0,7.12.22a9,9,0,0,1,4.4,1.29,5.88,5.88,0,0,1,2.23,3.46,26.86,26.86,0,0,1,.65,6.7,25.89,25.89,0,0,1-.65,6.62,5.8,5.8,0,0,1-2.23,3.38,8.57,8.57,0,0,1-4.4,1.23c-1.87.1-4.24.14-7.12.14H631.27a147.37,147.37,0,0,1-18.8-.93c-4.56-.63-8-2.11-10.36-4.47s-3.85-5.8-4.47-10.37a147.09,147.09,0,0,1-.93-18.79Z"/><path class="cls-5" d="M720.54,144.34q0,5.34.08,8.28a14.91,14.91,0,0,0,.64,4.54,5.46,5.46,0,0,0,1.8,2.52,23.78,23.78,0,0,0,3.53,2.09,62.66,62.66,0,0,0,5.91,2.88,14.86,14.86,0,0,0,10.72,0c1.59-.67,3.53-1.63,5.84-2.88a23.08,23.08,0,0,0,3.52-2.09,5.32,5.32,0,0,0,1.8-2.52,14.86,14.86,0,0,0,.65-4.54q.08-2.94.07-8.28v-43.2c0-2.88,0-5.25.15-7.13a8.9,8.9,0,0,1,1.22-4.46,5.43,5.43,0,0,1,3.46-2.23,30.11,30.11,0,0,1,6.69-.58,26,26,0,0,1,6.63.65,5.83,5.83,0,0,1,3.38,2.23,9.06,9.06,0,0,1,1.3,4.39c.14,1.88.21,4.25.21,7.13v49q0,8.35-.14,13a24.45,24.45,0,0,1-1.08,7.2,7.71,7.71,0,0,1-3,4,57.7,57.7,0,0,1-5.84,3.24c-3.36,1.64-5.54,3.6-6.55,5.91S760,189,760,193.3a11.13,11.13,0,0,1-.72,4.39,5.2,5.2,0,0,1-3.1,2.6,24.94,24.94,0,0,1-6.76,1.29q-4.39.36-11.6.36t-11.59-.36a25,25,0,0,1-6.77-1.29,5.21,5.21,0,0,1-3.09-2.6,11.13,11.13,0,0,1-.72-4.39c0-4.32-.51-7.6-1.51-9.86s-3.2-4.25-6.56-6a57.37,57.37,0,0,1-5.83-3.24,7.65,7.65,0,0,1-3-4,23.8,23.8,0,0,1-1.08-7.2q-.15-4.6-.15-13v-49c0-2.88,0-5.25.15-7.13a8.47,8.47,0,0,1,1.22-4.39,5.85,5.85,0,0,1,3.46-2.23,26.77,26.77,0,0,1,6.69-.65,29.26,29.26,0,0,1,6.63.58A5.4,5.4,0,0,1,719,89.55a9.53,9.53,0,0,1,1.3,4.46c.14,1.88.21,4.25.21,7.13Z"/><path class="cls-5" d="M798.3,144.34a15.17,15.17,0,0,1,.87-5.69,10.92,10.92,0,0,1,2.16-3.45,18.33,18.33,0,0,1,2.73-2.38,18.24,18.24,0,0,0,2.74-2.37A11.35,11.35,0,0,0,809,127a15.37,15.37,0,0,0,.86-5.69,145.43,145.43,0,0,1,.94-18.72c.62-4.61,2.11-8.08,4.46-10.44s5.81-3.84,10.37-4.46a146.87,146.87,0,0,1,18.79-.94h20.16q4.32,0,7.13.22a9,9,0,0,1,4.39,1.29,5.78,5.78,0,0,1,2.23,3.39,25.49,25.49,0,0,1,.65,6.62,26.45,26.45,0,0,1-.65,6.7,5.81,5.81,0,0,1-2.23,3.45,8.57,8.57,0,0,1-4.39,1.23c-1.87.1-4.25.14-7.13.14h-14.4c-4.32,0-7.65.07-10,.22a10.45,10.45,0,0,0-5.11,1.29,4.52,4.52,0,0,0-1.87,3.39,57.62,57.62,0,0,0-.29,6.62,59.83,59.83,0,0,0,.29,6.7,4.57,4.57,0,0,0,1.87,3.45,10.1,10.1,0,0,0,5.11,1.23c2.36.09,5.69.14,10,.14h14.4q4.32,0,7.13.22a9,9,0,0,1,4.39,1.29,5.84,5.84,0,0,1,2.23,3.46,26.39,26.39,0,0,1,.65,6.7,25.44,25.44,0,0,1-.65,6.62,5.75,5.75,0,0,1-2.23,3.38,8.57,8.57,0,0,1-4.39,1.23c-1.87.1-4.25.14-7.13.14h-14.4c-4.32,0-7.65.07-10,.22a10.45,10.45,0,0,0-5.11,1.29,4.52,4.52,0,0,0-1.87,3.39,57.62,57.62,0,0,0-.29,6.62,59.83,59.83,0,0,0,.29,6.7,4.57,4.57,0,0,0,1.87,3.45,10.1,10.1,0,0,0,5.11,1.23c2.36.1,5.69.14,10,.14h14.4q4.32,0,7.13.22a9,9,0,0,1,4.39,1.29,5.84,5.84,0,0,1,2.23,3.46,26.39,26.39,0,0,1,.65,6.7,25.44,25.44,0,0,1-.65,6.62,5.75,5.75,0,0,1-2.23,3.38,8.57,8.57,0,0,1-4.39,1.23c-1.87.1-4.25.14-7.13.14H832.86a147.19,147.19,0,0,1-18.79-.93c-4.56-.63-8-2.11-10.37-4.47s-3.84-5.8-4.46-10.37a144.93,144.93,0,0,1-.94-18.79Z"/><path class="cls-5" d="M896.22,144.34a15.4,15.4,0,0,1,.86-5.69,11.12,11.12,0,0,1,2.17-3.45,18.33,18.33,0,0,1,2.73-2.38,18.24,18.24,0,0,0,2.74-2.37,11.35,11.35,0,0,0,2.16-3.46,15.37,15.37,0,0,0,.86-5.69V101.14c0-2.88,0-5.25.14-7.13a8.57,8.57,0,0,1,1.23-4.39,5.85,5.85,0,0,1,3.46-2.23,26.77,26.77,0,0,1,6.69-.65,25.89,25.89,0,0,1,6.62.65,5.83,5.83,0,0,1,3.39,2.23,9.06,9.06,0,0,1,1.3,4.39c.14,1.88.21,4.25.21,7.13v60.48q0,6.48.29,10c.19,2.35.81,4.06,1.87,5.11s2.76,1.68,5.11,1.87,5.69.29,10,.29h14.4q4.32,0,7.13.22a9,9,0,0,1,4.39,1.29,5.84,5.84,0,0,1,2.23,3.46,26.39,26.39,0,0,1,.65,6.7,25.44,25.44,0,0,1-.65,6.62,5.75,5.75,0,0,1-2.23,3.38,8.57,8.57,0,0,1-4.39,1.23c-1.87.1-4.25.14-7.13.14H930.78q-8.64,0-14.54-.14a44.48,44.48,0,0,1-9.79-1.15,10.81,10.81,0,0,1-8.93-8.93,43.37,43.37,0,0,1-1.15-9.79q-.15-5.91-.15-14.55Z"/><path class="cls-6" d="M578.07,339.66c-4.6,0-8.16-.09-10.65-.29s-4.32-.86-5.47-2-1.83-3-2-5.47-.29-6.06-.29-10.67.1-8.17.29-10.67.86-4.32,2-5.48,3-1.82,5.47-2,6.05-.28,10.65-.28,8.16.09,10.66.28,4.32.87,5.47,2,1.83,3,2,5.48.29,6.06.29,10.67-.1,8.17-.29,10.67-.86,4.32-2,5.47-3,1.83-5.47,2S582.68,339.66,578.07,339.66Z"/><path class="cls-6" d="M667.68,224.4q3.74,0,6.26.22a8,8,0,0,1,4,1.29,5.63,5.63,0,0,1,2.09,3.38,29.26,29.26,0,0,1,.58,6.63,30.27,30.27,0,0,1-.58,6.7,5.66,5.66,0,0,1-2.09,3.45,7.49,7.49,0,0,1-4,1.22q-2.52.15-6.26.15c-3.27,0-5.76.07-7.49.22a6.51,6.51,0,0,0-3.82,1.29,5,5,0,0,0-1.44,3.38q-.21,2.31-.21,6.63v57.6q0,7.63-.29,12.17a14.18,14.18,0,0,1-1.87,6.91,7.93,7.93,0,0,1-5.11,3.17,48.37,48.37,0,0,1-10,.79,47.29,47.29,0,0,1-9.94-.79,8.17,8.17,0,0,1-5.11-3.17,13.62,13.62,0,0,1-1.94-6.91q-.3-4.55-.29-12.17V282a15.37,15.37,0,0,1,.86-5.69,11.47,11.47,0,0,1,2.16-3.46,18.24,18.24,0,0,1,2.74-2.37,17.25,17.25,0,0,0,2.73-2.38,10.92,10.92,0,0,0,2.16-3.45,15.14,15.14,0,0,0,.87-5.69q0-4.32-.22-6.63a4.43,4.43,0,0,0-4.68-4.67q-2.29-.22-6.62-.22h-14.4q-3.75,0-6.27-.15a7.52,7.52,0,0,1-4-1.22,5.71,5.71,0,0,1-2.09-3.45,30.38,30.38,0,0,1-.57-6.7,29.37,29.37,0,0,1,.57-6.63,5.68,5.68,0,0,1,2.09-3.38,8,8,0,0,1,4-1.29q2.52-.23,6.27-.22Z"/><path class="cls-6" d="M692.16,282a15.16,15.16,0,0,1,.86-5.69,11.47,11.47,0,0,1,2.16-3.46,18.24,18.24,0,0,1,2.74-2.37,17.25,17.25,0,0,0,2.73-2.38,10.92,10.92,0,0,0,2.16-3.45,15.14,15.14,0,0,0,.87-5.69,147.59,147.59,0,0,1,.93-18.72c.63-4.61,2.11-8.09,4.47-10.44s5.8-3.84,10.36-4.47a147.37,147.37,0,0,1,18.8-.93H758.4q4.32,0,7.12.22a9,9,0,0,1,4.4,1.29,5.83,5.83,0,0,1,2.23,3.38,26,26,0,0,1,.65,6.63,26.92,26.92,0,0,1-.65,6.7,5.85,5.85,0,0,1-2.23,3.45,8.48,8.48,0,0,1-4.4,1.22q-2.81.15-7.12.15H744q-6.48,0-10,.22a10.42,10.42,0,0,0-5.11,1.29,4.52,4.52,0,0,0-1.87,3.38,55.59,55.59,0,0,0-.29,6.63,57.5,57.5,0,0,0,.29,6.7,4.57,4.57,0,0,0,1.87,3.45,10,10,0,0,0,5.11,1.22q3.53.15,10,.15h14.4q4.32,0,7.12.22a9,9,0,0,1,4.4,1.29,5.85,5.85,0,0,1,2.23,3.46,26.77,26.77,0,0,1,.65,6.69,26,26,0,0,1-.65,6.63,5.83,5.83,0,0,1-2.23,3.38,8.48,8.48,0,0,1-4.4,1.22q-2.81.15-7.12.15H744q-6.48,0-10,.22a10.42,10.42,0,0,0-5.11,1.29,4.52,4.52,0,0,0-1.87,3.38,55.59,55.59,0,0,0-.29,6.63,57.5,57.5,0,0,0,.29,6.7,4.57,4.57,0,0,0,1.87,3.45,10,10,0,0,0,5.11,1.22q3.53.15,10,.15h14.4q4.32,0,7.12.21a9.06,9.06,0,0,1,4.4,1.3,5.85,5.85,0,0,1,2.23,3.46,26.77,26.77,0,0,1,.65,6.69,26,26,0,0,1-.65,6.63,5.83,5.83,0,0,1-2.23,3.38,8.48,8.48,0,0,1-4.4,1.22q-2.81.15-7.12.15H726.72a144.93,144.93,0,0,1-18.79-.94q-6.85-.93-10.37-4.46c-2.36-2.35-3.84-5.81-4.47-10.37a147.19,147.19,0,0,1-.93-18.79Z"/><path class="cls-6" d="M790.08,282a15.16,15.16,0,0,1,.86-5.69,11.47,11.47,0,0,1,2.16-3.46,18.24,18.24,0,0,1,2.74-2.37,17.25,17.25,0,0,0,2.73-2.38,10.92,10.92,0,0,0,2.16-3.45,15.14,15.14,0,0,0,.87-5.69,147.59,147.59,0,0,1,.93-18.72c.63-4.61,2.11-8.09,4.47-10.44s5.8-3.84,10.36-4.47a147.37,147.37,0,0,1,18.8-.93h17.28q4.32,0,7.12.22a9,9,0,0,1,4.4,1.29,5.83,5.83,0,0,1,2.23,3.38,26,26,0,0,1,.65,6.63,26.92,26.92,0,0,1-.65,6.7,5.85,5.85,0,0,1-2.23,3.45,8.48,8.48,0,0,1-4.4,1.22q-2.8.15-7.12.15H841.92q-6.48,0-10,.29c-2.35.19-4.06.81-5.11,1.87s-1.68,2.76-1.87,5.11-.29,5.69-.29,10v34.56c0,4.32.09,7.66.29,10s.81,4,1.87,5.11,2.76,1.68,5.11,1.87,5.69.29,10,.29h11.52q4.32,0,7.12.21a9.06,9.06,0,0,1,4.4,1.3,5.85,5.85,0,0,1,2.23,3.46,26.77,26.77,0,0,1,.65,6.69,26,26,0,0,1-.65,6.63,5.83,5.83,0,0,1-2.23,3.38,8.48,8.48,0,0,1-4.4,1.22q-2.8.15-7.12.15h-28.8a144.93,144.93,0,0,1-18.79-.94q-6.86-.93-10.37-4.46c-2.36-2.35-3.84-5.81-4.47-10.37a147.19,147.19,0,0,1-.93-18.79Z"/><path class="cls-6" d="M893.76,238.8c0-2.88,0-5.26.14-7.13a8.47,8.47,0,0,1,1.22-4.39,5.84,5.84,0,0,1,3.46-2.23,34.8,34.8,0,0,1,13.39,0,5.8,5.8,0,0,1,3.46,2.23,8.47,8.47,0,0,1,1.22,4.39q.15,2.81.15,7.13v14.4q0,6.48.28,10c.2,2.35.82,4.05,1.88,5.11s2.75,1.68,5.11,1.87,5.69.29,10,.29H937q6.48,0,10-.29c2.36-.19,4.06-.81,5.12-1.87s1.67-2.76,1.87-5.11.29-5.69.29-10V238.8c0-2.88,0-5.26.14-7.13a8.57,8.57,0,0,1,1.22-4.39,5.84,5.84,0,0,1,3.46-2.23,26.86,26.86,0,0,1,6.7-.65,25.94,25.94,0,0,1,6.62.65,5.79,5.79,0,0,1,3.38,2.23,9,9,0,0,1,1.3,4.39c.14,1.87.22,4.25.22,7.13v86.4c0,2.88-.08,5.25-.22,7.13a9,9,0,0,1-1.3,4.39,5.79,5.79,0,0,1-3.38,2.23,25.94,25.94,0,0,1-6.62.65,26.86,26.86,0,0,1-6.7-.65,5.84,5.84,0,0,1-3.46-2.23,8.57,8.57,0,0,1-1.22-4.39c-.1-1.88-.14-4.25-.14-7.13V310.8q0-6.48-.29-10t-1.87-5.11c-1.06-1.06-2.76-1.68-5.12-1.87s-5.68-.29-10-.29h-2.88q-6.78,0-10.3.29c-2.35.19-4.06.81-5.11,1.87s-1.64,2.76-1.73,5.11-.14,5.69-.14,10v5.76q0,7.63-.29,12.17a14.29,14.29,0,0,1-1.87,6.91,7.93,7.93,0,0,1-5.12,3.17,63.75,63.75,0,0,1-20,0,7.88,7.88,0,0,1-5.11-3.17,14.18,14.18,0,0,1-1.88-6.91q-.28-4.55-.28-12.17V284.88a16.34,16.34,0,0,1,.86-5.83,13,13,0,0,1,2.16-3.75,30.35,30.35,0,0,1,2.74-2.81,22.86,22.86,0,0,0,2.73-2.95,13.84,13.84,0,0,0,2.16-4.17,20,20,0,0,0,.87-6.41Z"/></g></g></svg>