<svg xmlns="http://www.w3.org/2000/svg" viewBox="0 0 591.85 591.94"><defs><style>.cls-1{fill:#fff;}</style></defs><g id="Layer_2" data-name="Layer 2"><g id="svg2848"><path class="cls-1" d="M115,279.79q-14.75,2.34-29.51,3.68A293.27,293.27,0,0,0,115,383.13Z"/><path class="cls-1" d="M419.15,543.94l-18.32-33.82a55.43,55.43,0,0,1-5.52,10.33c-5,7.31-14.41,17-31,21.69a87.14,87.14,0,0,1-14.63,2.67A300.1,300.1,0,0,0,419.15,543.94Z"/><path class="cls-1" d="M549.33,187.64c1.67,15.57,2.48,36,2.48,62.3a36,36,0,0,0,.67,8.34,12.42,12.42,0,0,0,1.12,2.5,37.9,37.9,0,0,0,4.23,4.59,134.45,134.45,0,0,1,12,12.26A77,77,0,0,1,582.94,300c.6,1.54,1.12,3.13,1.61,4.75a66.39,66.39,0,0,1,3.08-9.59,80.76,80.76,0,0,1,4.22-8.66A294.29,294.29,0,0,0,561.37,165q-6,9.72-12.47,19.21C549.05,185.33,549.2,186.48,549.33,187.64Z"/><path class="cls-1" d="M172.87,48,186.59,73.3a270.52,270.52,0,0,0,37.28-27.49A299.69,299.69,0,0,0,172.87,48Z"/><path class="cls-1" d="M196,90.6l10.58,19.52c2.12-.15,4.29-.29,6.52-.4,13.05-.63,29.09-1,47.68-1H374c2.65-3.28,5.27-6.57,7.81-9.92A298.84,298.84,0,0,0,250.26,48.06,288.67,288.67,0,0,1,196,90.6Z"/><path class="cls-1" d="M425.88,108.93c18.2.31,33.06,1.07,45.07,2.31,22.93,2.37,41.21,9.93,54.32,22.47a73.8,73.8,0,0,1,16.9,25c2.87-4.51,5.69-9,8.42-13.63A294,294,0,0,0,442.14,38.63,443.79,443.79,0,0,1,409.19,94.7Q417.77,101.5,425.88,108.93Z"/><path class="cls-1" d="M84.07,263.85q15.5-1.43,31-4V259c0-18.41.15-34.29.46-47.21.37-15.6,1.92-28.6,4.76-39.74,3.54-14,9.43-25.69,17.51-34.91,9-10.28,21.25-17.63,36.4-21.84q5.35-1.48,11.35-2.6l-6.75-12.46a289.83,289.83,0,0,1-66.84,24.85A298.53,298.53,0,0,0,84.07,263.85Z"/><path class="cls-1" d="M238.49,532.51a57.83,57.83,0,0,1-19.58,9.63c-8.31,2.33-18.11,3.42-30.85,3.42-12.46,0-22.52-1.09-30.76-3.34-17-4.64-26.56-14.4-31.58-21.77-6.12-9-9.55-20-10.19-32.67-.34-6.56-.5-14.52-.5-24.35V447.26a606.68,606.68,0,0,1-71,3.94A294.32,294.32,0,0,0,165.41,561.51a726.54,726.54,0,0,0,90.07-21.17Q246.87,536.68,238.49,532.51Z"/><path class="cls-1" d="M285.42,551.32a746.83,746.83,0,0,1-87.25,23.93,295.25,295.25,0,0,0,225.58-12.34A320.18,320.18,0,0,1,285.42,551.32Z"/><path class="cls-1" d="M115,422.63q-6.82-10.49-12.9-21.65A312.43,312.43,0,0,1,66,284.86,444.26,444.26,0,0,1,.3,282.94,294.17,294.17,0,0,0,32.83,431.37a586.85,586.85,0,0,0,82.2-3.92Z"/><path class="cls-1" d="M169.36,82.92,155.49,57.33a298.84,298.84,0,0,0-31.13,44A272.46,272.46,0,0,0,169.36,82.92Z"/><path class="cls-1" d="M424.68,29.43A297.72,297.72,0,0,0,289,.08a290,290,0,0,1-22.72,30.68A318.76,318.76,0,0,1,393.36,82.94,424.15,424.15,0,0,0,424.68,29.43Z"/><path class="cls-1" d="M64.53,265.18A318.67,318.67,0,0,1,88.7,129.63a289.36,289.36,0,0,1-39.65,3.19A297.47,297.47,0,0,0,1.86,263.3,423.76,423.76,0,0,0,64.53,265.18Z"/><path class="cls-1" d="M242.71,27.53A267.39,267.39,0,0,0,264,1.7a294,294,0,0,0-95.56,27.23A319.21,319.21,0,0,1,242.71,27.53Z"/><path class="cls-1" d="M141.82,43.35a294.19,294.19,0,0,0-78,69.14,268.31,268.31,0,0,0,34.91-4.68A319.13,319.13,0,0,1,141.82,43.35Z"/><path class="cls-1" d="M406.1,145.46q39.06,0,61.09,2.28t32.71,12.49q10.67,10.22,12.94,31.34t2.27,58.37q0,12.72,2.73,20.44a45.13,45.13,0,0,0,6.82,12.95,73,73,0,0,0,8.62,9.31,96.61,96.61,0,0,1,8.64,8.86,40.58,40.58,0,0,1,6.81,11.81q2.73,7.05,2.72,18.4V436.18q0,24.09-.9,38.39t-5.91,21.8q-5,7.5-16.12,10T497,508.86q-20.44,0-31.57-2.5t-16.13-10q-5-7.5-5.91-21.8t-.9-38.39V263.57q0-16.8-1.82-26.8t-6.13-15.22A18.94,18.94,0,0,0,423.13,215a92,92,0,0,0-17-1.36A108.23,108.23,0,0,0,387,215a17.14,17.14,0,0,0-11.13,6.59q-3.87,5.23-5,15.22a248.49,248.49,0,0,0-1.13,26.8V463.43q0,13.63-.68,22.49T365,499.78c-2.27,3.33-5.84,5.67-10.68,7s-11.81,2-20.89,2-16.13-.68-21.12-2-8.63-3.71-10.91-7-3.56-7.95-3.86-13.86-.45-13.4-.45-22.49V263.57a248.06,248.06,0,0,0-1.14-26.8q-1.14-10-5-15.22A17.19,17.19,0,0,0,279.82,215a108.39,108.39,0,0,0-19.08-1.36A91.08,91.08,0,0,0,243.48,215a18.78,18.78,0,0,0-11.13,6.59q-4.32,5.23-6.13,15.22t-1.82,26.8V463.43q0,13.63-.68,22.49t-4.09,13.86q-3.4,5-10.68,7t-20.89,2q-13.63,0-21.12-2t-10.91-7q-3.41-5-3.86-13.86t-.45-22.49V259q0-27.25.45-46.33t3.64-31.58q3.16-12.48,9.54-19.75T184,150.69q12.27-3.41,30.89-4.32t45.88-.91Z"/></g></g></svg>