<svg xmlns="http://www.w3.org/2000/svg" viewBox="0 0 557.41 591.94"><defs><style>.cls-1{fill:#fff;}</style></defs><g id="Layer_2" data-name="Layer 2"><g id="svg2848"><path class="cls-1" d="M453.93,138.14a53.69,53.69,0,0,1,3.72-6.38c5.09-7.46,14.75-17.33,31.88-22,8.32-2.27,18.5-3.37,31.11-3.37l2.68,0a294,294,0,0,0-81.18-67.78A443.79,443.79,0,0,1,409.19,94.7,311,311,0,0,1,453.93,138.14Z"/><path class="cls-1" d="M84.07,263.85a420.64,420.64,0,0,0,68.64-12.11V189.35c0-10,.17-18,.51-24.66.64-12.79,4.1-23.87,10.28-32.94a53.55,53.55,0,0,1,22.28-18.52l-7-13a289.83,289.83,0,0,1-66.84,24.85A298.53,298.53,0,0,0,84.07,263.85Z"/><path class="cls-1" d="M242.71,27.53A267.39,267.39,0,0,0,264,1.7a294,294,0,0,0-95.56,27.23A319.21,319.21,0,0,1,242.71,27.53Z"/><path class="cls-1" d="M424.68,29.43A297.72,297.72,0,0,0,289,.08a290,290,0,0,1-22.72,30.68A318.76,318.76,0,0,1,393.36,82.94,424.15,424.15,0,0,0,424.68,29.43Z"/><path class="cls-1" d="M172.87,48,186.59,73.3a270.52,270.52,0,0,0,37.28-27.49A299.69,299.69,0,0,0,172.87,48Z"/><path class="cls-1" d="M124.63,306.43a76.17,76.17,0,0,1,11.77-23c2.45-3.23,5.07-6.33,7.81-9.29a439.75,439.75,0,0,1-58.69,9.34,293.88,293.88,0,0,0,33.9,108.14l1.12,2V336.43C120.54,324.76,121.88,315,124.63,306.43Z"/><path class="cls-1" d="M196,90.6l9.29,17.14a148.43,148.43,0,0,1,21.23-1.35c12.71,0,22.9,1.13,31.15,3.45,16.8,4.73,26.33,14.51,31.36,21.89,6,8.79,9.5,19.56,10.46,32,.22,2.89.4,6,.53,9.41.08-3.07.18-5.88.32-8.48.64-12.78,4.1-23.87,10.27-32.93,5.09-7.47,14.75-17.33,31.88-22,8.32-2.27,18.5-3.37,31.11-3.37H376q3-3.75,5.88-7.55A298.84,298.84,0,0,0,250.26,48.06,288.67,288.67,0,0,1,196,90.6Z"/><path class="cls-1" d="M285.42,551.32a746.83,746.83,0,0,1-87.25,23.93,295.25,295.25,0,0,0,225.58-12.34A320.18,320.18,0,0,1,285.42,551.32Z"/><path class="cls-1" d="M202.83,544.76c-22.67-3.1-40.92-11.43-54.23-24.76S127,488.46,123.86,465.77c-.79-5.8-1.44-12.23-2-19.33A606.62,606.62,0,0,1,44,451.2,294.32,294.32,0,0,0,165.41,561.51q33-5.57,65.69-14.25C220.35,546.71,211,545.87,202.83,544.76Z"/><path class="cls-1" d="M141.82,43.35a294.19,294.19,0,0,0-78,69.14,268.31,268.31,0,0,0,34.91-4.68A319.13,319.13,0,0,1,141.82,43.35Z"/><path class="cls-1" d="M169.36,82.92,155.49,57.33a298.84,298.84,0,0,0-31.13,44A272.46,272.46,0,0,0,169.36,82.92Z"/><path class="cls-1" d="M64.53,265.18A318.67,318.67,0,0,1,88.7,129.63a289.36,289.36,0,0,1-39.65,3.19A297.47,297.47,0,0,0,1.86,263.3,423.76,423.76,0,0,0,64.53,265.18Z"/><path class="cls-1" d="M102.13,401A312.43,312.43,0,0,1,66,284.86,444.26,444.26,0,0,1,.3,282.94,294.17,294.17,0,0,0,32.83,431.37,585.76,585.76,0,0,0,118,427.11Q109.51,414.56,102.13,401Z"/><path class="cls-1" d="M267.85,511.09q-38.16,0-60-3t-33.09-14.25q-11.27-11.25-14.25-33.09t-3-60V336.43q0-11.49,2.29-18.61a39.31,39.31,0,0,1,6-11.95,89.34,89.34,0,0,1,7.81-9,69.23,69.23,0,0,0,7.82-9.42,45.17,45.17,0,0,0,6-13.33q2.29-8,2.3-20.45V189.35q0-13.78.46-22.75c.3-6,1.61-10.64,3.91-14s6-5.74,11-7.12,12.18-2.07,21.37-2.07,16.24.69,21.14,2.07,8.51,3.75,10.8,7.12,3.68,8,4.14,14,.69,13.56.69,22.75v193q0,18.86.46,29.88t3.91,16.54q3.44,5.52,11,7.13T300,437.55q13.78,0,21.14-1.61c4.9-1.07,8.51-3.45,10.8-7.13s3.68-9.19,4.14-16.54.69-17.31.69-29.88v-193q0-13.78.46-22.75c.3-6,1.61-10.64,3.91-14s6-5.74,11-7.12,12.18-2.07,21.37-2.07,16.24.69,21.14,2.07,8.51,3.75,10.8,7.12,3.68,8.12,4.14,14.25.69,13.79.69,23V382.39q0,18.86.46,29.88t3.91,16.54q3.44,5.52,11,7.13t21.37,1.61q13.78,0,21.14-1.61c4.9-1.07,8.51-3.45,10.8-7.13s3.68-9.19,4.14-16.54.69-17.31.69-29.88v-193q0-13.78.46-22.75c.3-6,1.61-10.64,3.91-14s6-5.74,11-7.12,12.18-2.07,21.37-2.07,16.24.69,21.14,2.07,8.51,3.75,10.8,7.12,3.68,8,4.14,14,.69,13.56.69,22.75V400.78q0,38.16-3,60t-14.25,33.09q-11.26,11.26-33.32,14.25t-59.75,3Z"/></g></g></svg>