<svg xmlns="http://www.w3.org/2000/svg" viewBox="0 0 464.48 464.48"><defs><style>.cls-1{fill:#c8c8c8;}.cls-2{fill:#a0a0a0;}.cls-3{fill:#b4b4b4;}.cls-4{fill:#bebebe;}.cls-5{fill:#787878;}.cls-6{fill:#548ada;}.cls-7{fill:#9468d8;}.cls-8{fill:none;}</style></defs><g id="Layer_2" data-name="Layer 2"><g id="Layer_1-2" data-name="Layer 1"><rect class="cls-1" x="128" width="16.48" height="16.48"/><rect class="cls-1" x="144" width="16.48" height="16.48"/><rect class="cls-1" x="192" width="16.48" height="16.48"/><rect class="cls-1" x="224" width="16.48" height="16.48"/><rect class="cls-1" x="256" width="16.48" height="16.48"/><rect class="cls-1" x="288" width="16.48" height="16.48"/><rect class="cls-1" x="320" width="16.48" height="16.48"/><rect class="cls-1" x="128" y="16" width="16.48" height="16.48"/><rect class="cls-1" x="144" y="16" width="16.48" height="16.48"/><rect class="cls-1" x="240" y="16" width="16.48" height="16.48"/><rect class="cls-1" x="304" y="16" width="16.48" height="16.48"/><rect class="cls-1" x="128" y="32" width="16.48" height="16.48"/><rect class="cls-1" x="144" y="32" width="16.48" height="16.48"/><rect class="cls-1" x="224" y="32" width="16.48" height="16.48"/><rect class="cls-1" x="288" y="32" width="16.48" height="16.48"/><rect class="cls-1" x="304" y="32" width="16.48" height="16.48"/><rect class="cls-1" x="320" y="32" width="16.48" height="16.48"/><rect class="cls-1" x="160" y="48" width="16.48" height="16.48"/><rect class="cls-1" x="224" y="48" width="16.48" height="16.48"/><rect class="cls-1" x="272" y="48" width="16.48" height="16.48"/><rect class="cls-1" x="304" y="48" width="16.48" height="16.48"/><rect class="cls-1" x="320" y="48" width="16.48" height="16.48"/><rect class="cls-1" x="144" y="64" width="16.48" height="16.48"/><rect class="cls-1" x="160" y="64" width="16.48" height="16.48"/><rect class="cls-1" x="176" y="64" width="16.48" height="16.48"/><rect class="cls-1" x="208" y="64" width="16.48" height="16.48"/><rect class="cls-1" x="224" y="64" width="16.48" height="16.48"/><rect class="cls-1" x="288" y="64" width="16.48" height="16.48"/><rect class="cls-1" x="304" y="64" width="16.48" height="16.48"/><rect class="cls-1" x="320" y="64" width="16.48" height="16.48"/><rect class="cls-1" x="128" y="80" width="16.48" height="16.48"/><rect class="cls-1" x="144" y="80" width="16.48" height="16.48"/><rect class="cls-1" x="192" y="80" width="16.48" height="16.48"/><rect class="cls-1" x="288" y="80" width="16.48" height="16.48"/><rect class="cls-1" x="320" y="80" width="16.48" height="16.48"/><rect class="cls-1" x="128" y="96" width="16.48" height="16.48"/><rect class="cls-1" x="160" y="96" width="16.48" height="16.48"/><rect class="cls-1" x="192" y="96" width="16.48" height="16.48"/><rect class="cls-1" x="224" y="96" width="16.48" height="16.48"/><rect class="cls-1" x="256" y="96" width="16.48" height="16.48"/><rect class="cls-1" x="288" y="96" width="16.48" height="16.48"/><rect class="cls-1" x="320" y="96" width="16.48" height="16.48"/><rect class="cls-1" x="128" y="112" width="16.48" height="16.48"/><rect class="cls-1" x="176" y="112" width="16.48" height="16.48"/><rect class="cls-1" x="224" y="112" width="16.48" height="16.48"/><rect class="cls-1" x="320" y="112" width="16.48" height="16.48"/><rect class="cls-1" x="32" y="128" width="16.48" height="16.48"/><rect class="cls-1" x="48" y="128" width="16.48" height="16.48"/><rect class="cls-1" x="64" y="128" width="16.48" height="16.48"/><rect class="cls-1" x="96" y="128" width="16.48" height="16.48"/><rect class="cls-1" x="128" y="128" width="16.48" height="16.48"/><rect class="cls-1" x="144" y="128" width="16.48" height="16.48"/><rect class="cls-1" x="160" y="128" width="16.48" height="16.48"/><rect class="cls-1" x="176" y="128" width="16.48" height="16.48"/><rect class="cls-1" x="288" y="128" width="16.48" height="16.48"/><rect class="cls-1" x="336" y="128" width="16.48" height="16.48"/><rect class="cls-1" x="352" y="128" width="16.48" height="16.48"/><rect class="cls-1" x="368" y="128" width="16.48" height="16.48"/><rect class="cls-1" x="416" y="128" width="16.48" height="16.48"/><rect class="cls-1" x="432" y="128" width="16.48" height="16.48"/><rect class="cls-1" x="448" y="128" width="16.48" height="16.48"/><rect class="cls-1" x="16" y="144" width="16.48" height="16.48"/><rect class="cls-1" x="32" y="144" width="16.48" height="16.48"/><rect class="cls-1" x="80" y="144" width="16.48" height="16.48"/><rect class="cls-1" x="160" y="144" width="16.48" height="16.48"/><rect class="cls-1" x="176" y="144" width="16.48" height="16.48"/><rect class="cls-1" x="192" y="144" width="16.48" height="16.48"/><rect class="cls-1" x="224" y="144" width="16.48" height="16.48"/><rect class="cls-1" x="240" y="144" width="16.48" height="16.48"/><rect class="cls-1" x="256" y="144" width="16.48" height="16.48"/><rect class="cls-1" x="272" y="144" width="16.48" height="16.48"/><rect class="cls-1" x="352" y="144" width="16.48" height="16.48"/><rect class="cls-1" x="368" y="144" width="16.48" height="16.48"/><rect class="cls-1" x="384" y="144" width="16.48" height="16.48"/><rect class="cls-1" x="400" y="144" width="16.48" height="16.48"/><rect class="cls-1" x="448" y="144" width="16.48" height="16.48"/><rect class="cls-1" x="32" y="160" width="16.48" height="16.48"/><rect class="cls-1" x="64" y="160" width="16.48" height="16.48"/><rect class="cls-1" x="96" y="160" width="16.48" height="16.48"/><rect class="cls-1" x="144" y="160" width="16.48" height="16.48"/><rect class="cls-1" x="336" y="160" width="16.48" height="16.48"/><rect class="cls-1" x="352" y="160" width="16.48" height="16.48"/><rect class="cls-1" x="400" y="160" width="16.48" height="16.48"/><rect class="cls-1" y="176" width="16.48" height="16.48"/><rect class="cls-1" x="16" y="176" width="16.48" height="16.48"/><rect class="cls-1" x="64" y="176" width="16.48" height="16.48"/><rect class="cls-1" x="80" y="176" width="16.48" height="16.48"/><rect class="cls-1" x="112" y="176" width="16.48" height="16.48"/><rect class="cls-1" x="336" y="176" width="16.48" height="16.48"/><rect class="cls-1" x="352" y="176" width="16.48" height="16.48"/><rect class="cls-1" x="368" y="176" width="16.48" height="16.48"/><rect class="cls-1" x="400" y="176" width="16.48" height="16.48"/><rect class="cls-1" x="432" y="176" width="16.48" height="16.48"/><rect class="cls-1" y="192" width="16.48" height="16.48"/><rect class="cls-1" x="16" y="192" width="16.48" height="16.48"/><rect class="cls-1" x="32" y="192" width="16.48" height="16.48"/><rect class="cls-1" x="64" y="192" width="16.48" height="16.48"/><rect class="cls-1" x="80" y="192" width="16.48" height="16.48"/><rect class="cls-1" x="96" y="192" width="16.48" height="16.48"/><rect class="cls-1" x="112" y="192" width="16.48" height="16.48"/><rect class="cls-1" x="144" y="192" width="16.48" height="16.48"/><rect class="cls-1" x="304" y="192" width="16.48" height="16.48"/><rect class="cls-1" x="336" y="192" width="16.48" height="16.48"/><rect class="cls-1" x="368" y="192" width="16.48" height="16.48"/><rect class="cls-1" x="400" y="192" width="16.48" height="16.48"/><rect class="cls-1" x="416" y="192" width="16.48" height="16.48"/><rect class="cls-1" x="432" y="192" width="16.48" height="16.48"/><rect class="cls-1" x="448" y="192" width="16.48" height="16.48"/><rect class="cls-1" y="208" width="16.48" height="16.48"/><rect class="cls-1" x="32" y="208" width="16.48" height="16.48"/><rect class="cls-1" x="64" y="208" width="16.48" height="16.48"/><rect class="cls-1" x="80" y="208" width="16.48" height="16.48"/><rect class="cls-1" x="112" y="208" width="16.48" height="16.48"/><rect class="cls-1" x="304" y="208" width="16.48" height="16.48"/><rect class="cls-1" x="320" y="208" width="16.48" height="16.48"/><rect class="cls-1" x="336" y="208" width="16.48" height="16.48"/><rect class="cls-1" x="352" y="208" width="16.48" height="16.48"/><rect class="cls-1" x="384" y="208" width="16.48" height="16.48"/><rect class="cls-1" x="400" y="208" width="16.48" height="16.48"/><rect class="cls-1" x="432" y="208" width="16.48" height="16.48"/><rect class="cls-1" x="448" y="208" width="16.48" height="16.48"/><rect class="cls-1" x="48" y="224" width="16.48" height="16.48"/><rect class="cls-1" x="64" y="224" width="16.48" height="16.48"/><rect class="cls-1" x="96" y="224" width="16.48" height="16.48"/><rect class="cls-1" x="320" y="224" width="16.48" height="16.48"/><rect class="cls-1" x="368" y="224" width="16.48" height="16.48"/><rect class="cls-1" y="240" width="16.48" height="16.48"/><rect class="cls-1" x="64" y="240" width="16.48" height="16.48"/><rect class="cls-1" x="80" y="240" width="16.48" height="16.48"/><rect class="cls-1" x="128" y="240" width="16.48" height="16.48"/><rect class="cls-1" x="320" y="240" width="16.48" height="16.48"/><rect class="cls-1" x="336" y="240" width="16.48" height="16.48"/><rect class="cls-1" x="384" y="240" width="16.48" height="16.48"/><rect class="cls-1" x="400" y="240" width="16.48" height="16.48"/><rect class="cls-1" x="432" y="240" width="16.48" height="16.48"/><rect class="cls-1" y="256" width="16.48" height="16.48"/><rect class="cls-1" x="16" y="256" width="16.48" height="16.48"/><rect class="cls-1" x="32" y="256" width="16.48" height="16.48"/><rect class="cls-1" x="48" y="256" width="16.48" height="16.48"/><rect class="cls-1" x="80" y="256" width="16.48" height="16.48"/><rect class="cls-1" x="96" y="256" width="16.48" height="16.48"/><rect class="cls-1" x="112" y="256" width="16.48" height="16.48"/><rect class="cls-1" x="128" y="256" width="16.48" height="16.48"/><rect class="cls-1" x="144" y="256" width="16.48" height="16.48"/><rect class="cls-1" x="304" y="256" width="16.48" height="16.48"/><rect class="cls-1" x="400" y="256" width="16.48" height="16.48"/><rect class="cls-1" x="416" y="256" width="16.48" height="16.48"/><rect class="cls-1" x="448" y="256" width="16.48" height="16.48"/><rect class="cls-1" y="272" width="16.48" height="16.48"/><rect class="cls-1" x="48" y="272" width="16.48" height="16.48"/><rect class="cls-1" x="64" y="272" width="16.48" height="16.48"/><rect class="cls-1" x="80" y="272" width="16.48" height="16.48"/><rect class="cls-1" x="112" y="272" width="16.48" height="16.48"/><rect class="cls-1" x="128" y="272" width="16.48" height="16.48"/><rect class="cls-1" x="304" y="272" width="16.48" height="16.48"/><rect class="cls-1" x="320" y="272" width="16.48" height="16.48"/><rect class="cls-1" x="336" y="272" width="16.48" height="16.48"/><rect class="cls-1" x="352" y="272" width="16.48" height="16.48"/><rect class="cls-1" x="384" y="272" width="16.48" height="16.48"/><rect class="cls-1" x="400" y="272" width="16.48" height="16.48"/><rect class="cls-1" x="432" y="272" width="16.48" height="16.48"/><rect class="cls-1" x="448" y="272" width="16.48" height="16.48"/><rect class="cls-1" y="288" width="16.48" height="16.48"/><rect class="cls-1" x="48" y="288" width="16.48" height="16.48"/><rect class="cls-1" x="64" y="288" width="16.48" height="16.48"/><rect class="cls-1" x="96" y="288" width="16.48" height="16.48"/><rect class="cls-1" x="144" y="288" width="16.48" height="16.48"/><rect class="cls-1" x="320" y="288" width="16.48" height="16.48"/><rect class="cls-1" x="352" y="288" width="16.48" height="16.48"/><rect class="cls-1" x="384" y="288" width="16.48" height="16.48"/><rect class="cls-1" x="416" y="288" width="16.48" height="16.48"/><rect class="cls-1" y="304" width="16.48" height="16.48"/><rect class="cls-1" x="32" y="304" width="16.48" height="16.48"/><rect class="cls-1" x="80" y="304" width="16.48" height="16.48"/><rect class="cls-1" x="144" y="304" width="16.48" height="16.48"/><rect class="cls-1" x="160" y="304" width="16.48" height="16.48"/><rect class="cls-1" x="208" y="304" width="16.48" height="16.48"/><rect class="cls-1" x="256" y="304" width="16.48" height="16.48"/><rect class="cls-1" x="272" y="304" width="16.48" height="16.48"/><rect class="cls-1" x="304" y="304" width="16.48" height="16.48"/><rect class="cls-1" x="352" y="304" width="16.48" height="16.48"/><rect class="cls-1" x="368" y="304" width="16.48" height="16.48"/><rect class="cls-1" x="400" y="304" width="16.48" height="16.48"/><rect class="cls-1" x="432" y="304" width="16.48" height="16.48"/><rect class="cls-1" x="448" y="304" width="16.48" height="16.48"/><rect class="cls-1" y="320" width="16.48" height="16.48"/><rect class="cls-1" x="48" y="320" width="16.48" height="16.48"/><rect class="cls-1" x="64" y="320" width="16.48" height="16.48"/><rect class="cls-1" x="96" y="320" width="16.48" height="16.48"/><rect class="cls-1" x="112" y="320" width="16.48" height="16.48"/><rect class="cls-1" x="128" y="320" width="16.48" height="16.48"/><rect class="cls-1" x="160" y="320" width="16.48" height="16.48"/><rect class="cls-1" x="224" y="320" width="16.48" height="16.48"/><rect class="cls-1" x="256" y="320" width="16.48" height="16.48"/><rect class="cls-1" x="288" y="320" width="16.48" height="16.48"/><rect class="cls-1" x="320" y="320" width="16.48" height="16.48"/><rect class="cls-1" x="336" y="320" width="16.48" height="16.48"/><rect class="cls-1" x="352" y="320" width="16.48" height="16.48"/><rect class="cls-1" x="368" y="320" width="16.48" height="16.48"/><rect class="cls-1" x="384" y="320" width="16.48" height="16.48"/><rect class="cls-1" x="416" y="320" width="16.48" height="16.48"/><rect class="cls-1" x="128" y="336" width="16.48" height="16.48"/><rect class="cls-1" x="176" y="336" width="16.48" height="16.48"/><rect class="cls-1" x="192" y="336" width="16.48" height="16.48"/><rect class="cls-1" x="208" y="336" width="16.48" height="16.48"/><rect class="cls-1" x="224" y="336" width="16.48" height="16.48"/><rect class="cls-1" x="320" y="336" width="16.48" height="16.48"/><rect class="cls-1" x="384" y="336" width="16.48" height="16.48"/><rect class="cls-1" x="400" y="336" width="16.48" height="16.48"/><rect class="cls-1" x="432" y="336" width="16.48" height="16.48"/><rect class="cls-1" x="448" y="336" width="16.48" height="16.48"/><rect class="cls-1" x="144" y="352" width="16.48" height="16.48"/><rect class="cls-1" x="160" y="352" width="16.48" height="16.48"/><rect class="cls-1" x="176" y="352" width="16.48" height="16.48"/><rect class="cls-1" x="192" y="352" width="16.48" height="16.48"/><rect class="cls-1" x="208" y="352" width="16.48" height="16.48"/><rect class="cls-1" x="272" y="352" width="16.48" height="16.48"/><rect class="cls-1" x="288" y="352" width="16.48" height="16.48"/><rect class="cls-1" x="304" y="352" width="16.48" height="16.48"/><rect class="cls-1" x="320" y="352" width="16.48" height="16.48"/><rect class="cls-1" x="352" y="352" width="16.48" height="16.48"/><rect class="cls-1" x="384" y="352" width="16.48" height="16.48"/><rect class="cls-1" x="208" y="368" width="16.48" height="16.48"/><rect class="cls-1" x="240" y="368" width="16.48" height="16.48"/><rect class="cls-1" x="256" y="368" width="16.48" height="16.48"/><rect class="cls-1" x="304" y="368" width="16.48" height="16.48"/><rect class="cls-1" x="320" y="368" width="16.48" height="16.48"/><rect class="cls-1" x="384" y="368" width="16.48" height="16.48"/><rect class="cls-1" x="400" y="368" width="16.48" height="16.48"/><rect class="cls-1" x="128" y="384" width="16.48" height="16.48"/><rect class="cls-1" x="144" y="384" width="16.48" height="16.48"/><rect class="cls-1" x="160" y="384" width="16.48" height="16.48"/><rect class="cls-1" x="176" y="384" width="16.48" height="16.48"/><rect class="cls-1" x="208" y="384" width="16.48" height="16.48"/><rect class="cls-1" x="224" y="384" width="16.48" height="16.48"/><rect class="cls-1" x="240" y="384" width="16.48" height="16.48"/><rect class="cls-1" x="256" y="384" width="16.48" height="16.48"/><rect class="cls-1" x="272" y="384" width="16.48" height="16.48"/><rect class="cls-1" x="320" y="384" width="16.48" height="16.48"/><rect class="cls-1" x="336" y="384" width="16.48" height="16.48"/><rect class="cls-1" x="352" y="384" width="16.48" height="16.48"/><rect class="cls-1" x="368" y="384" width="16.48" height="16.48"/><rect class="cls-1" x="384" y="384" width="16.48" height="16.48"/><rect class="cls-1" x="400" y="384" width="16.48" height="16.48"/><rect class="cls-1" x="416" y="384" width="16.48" height="16.48"/><rect class="cls-1" x="432" y="384" width="16.48" height="16.48"/><rect class="cls-1" x="128" y="400" width="16.48" height="16.48"/><rect class="cls-1" x="144" y="400" width="16.48" height="16.48"/><rect class="cls-1" x="160" y="400" width="16.48" height="16.48"/><rect class="cls-1" x="208" y="400" width="16.48" height="16.48"/><rect class="cls-1" x="224" y="400" width="16.48" height="16.48"/><rect class="cls-1" x="304" y="400" width="16.48" height="16.48"/><rect class="cls-1" x="320" y="400" width="16.48" height="16.48"/><rect class="cls-1" x="336" y="400" width="16.48" height="16.48"/><rect class="cls-1" x="368" y="400" width="16.48" height="16.48"/><rect class="cls-1" x="400" y="400" width="16.48" height="16.48"/><rect class="cls-1" x="128" y="416" width="16.48" height="16.48"/><rect class="cls-1" x="144" y="416" width="16.48" height="16.48"/><rect class="cls-1" x="176" y="416" width="16.48" height="16.48"/><rect class="cls-1" x="192" y="416" width="16.48" height="16.48"/><rect class="cls-1" x="208" y="416" width="16.48" height="16.48"/><rect class="cls-1" x="224" y="416" width="16.48" height="16.48"/><rect class="cls-1" x="240" y="416" width="16.48" height="16.48"/><rect class="cls-1" x="256" y="416" width="16.48" height="16.48"/><rect class="cls-1" x="304" y="416" width="16.48" height="16.48"/><rect class="cls-1" x="320" y="416" width="16.48" height="16.48"/><rect class="cls-1" x="336" y="416" width="16.48" height="16.48"/><rect class="cls-1" x="352" y="416" width="16.48" height="16.48"/><rect class="cls-1" x="368" y="416" width="16.48" height="16.48"/><rect class="cls-1" x="384" y="416" width="16.48" height="16.48"/><rect class="cls-1" x="400" y="416" width="16.48" height="16.48"/><rect class="cls-1" x="432" y="416" width="16.48" height="16.48"/><rect class="cls-1" x="160" y="432" width="16.48" height="16.48"/><rect class="cls-1" x="208" y="432" width="16.48" height="16.48"/><rect class="cls-1" x="224" y="432" width="16.48" height="16.48"/><rect class="cls-1" x="272" y="432" width="16.48" height="16.48"/><rect class="cls-1" x="288" y="432" width="16.48" height="16.48"/><rect class="cls-1" x="320" y="432" width="16.48" height="16.48"/><rect class="cls-1" x="384" y="432" width="16.48" height="16.48"/><rect class="cls-1" x="400" y="432" width="16.48" height="16.48"/><rect class="cls-1" x="432" y="432" width="16.48" height="16.48"/><rect class="cls-1" x="144" y="448" width="16.48" height="16.48"/><rect class="cls-1" x="160" y="448" width="16.48" height="16.48"/><rect class="cls-1" x="192" y="448" width="16.48" height="16.48"/><rect class="cls-1" x="240" y="448" width="16.48" height="16.48"/><rect class="cls-1" x="256" y="448" width="16.48" height="16.48"/><rect class="cls-1" x="272" y="448" width="16.48" height="16.48"/><rect class="cls-1" x="288" y="448" width="16.48" height="16.48"/><rect class="cls-1" x="304" y="448" width="16.48" height="16.48"/><rect class="cls-1" x="384" y="448" width="16.48" height="16.48"/><rect class="cls-1" x="416" y="448" width="16.48" height="16.48"/><path class="cls-1" d="M112,0H35.2A35.51,35.51,0,0,0,0,35.2V112H112ZM16,96V38.4C16,26.4,26.4,16,38.4,16H96V96Z"/><path class="cls-1" d="M464,112V35.2A35.51,35.51,0,0,0,428.8,0H352V112ZM368,16h57.6c12,0,22.4,10.4,22.4,22.4V96H368Z"/><path class="cls-1" d="M0,352v76.8A35.51,35.51,0,0,0,35.2,464H112V352Zm96,96H38.4c-12,0-22.4-10.4-22.4-22.4V368H96Z"/><path class="cls-1" d="M44,80A22.06,22.06,0,0,0,32,68V44A12.3,12.3,0,0,1,44,32H68A22.06,22.06,0,0,0,80,44V68A12.3,12.3,0,0,1,68,80Z"/><path class="cls-1" d="M384,44a22.06,22.06,0,0,0,12-12h24a12.3,12.3,0,0,1,12,12V68a22.06,22.06,0,0,0-12,12H396a12.3,12.3,0,0,1-12-12Z"/><path class="cls-1" d="M80,420a22.06,22.06,0,0,0-12,12H44a12.3,12.3,0,0,1-12-12V396a22.06,22.06,0,0,0,12-12H68a12.3,12.3,0,0,1,12,12Z"/><path class="cls-2" d="M208.32,184.82l2.64,4.86a51.39,51.39,0,0,0,7.17-5.28A56.67,56.67,0,0,0,208.32,184.82Z"/><path class="cls-2" d="M212.76,193l12.17,22.46q3-1.75,5.81-3.74a5.83,5.83,0,0,1,.74-1.55,5.56,5.56,0,0,1,3.21-2.2,9.59,9.59,0,0,1,1.25-.24,81.21,81.21,0,0,0,12.57-13.14,57.48,57.48,0,0,0-25.31-9.77A55.41,55.41,0,0,1,212.76,193Z"/><path class="cls-2" d="M265.19,254.44a8.24,8.24,0,0,1-1.33-4.31c-.08-1.2-.11-2.75-.11-4.75V232.5a11.37,11.37,0,0,1,.13-1.82A117,117,0,0,1,249.8,242h4.38c1.17,0,2.13,0,2.92.09a6.66,6.66,0,0,1,3.3,1.07,5.49,5.49,0,0,1,2.2,3.21,13.2,13.2,0,0,1,.36,3.39,12.62,12.62,0,0,1-.37,3.39,5.51,5.51,0,0,1-2.19,3.16,6.5,6.5,0,0,1-3.39,1c-.76,0-1.68.06-2.83.06h-6.54l5.29,9.76a141.94,141.94,0,0,0,15.66-10.29A6.24,6.24,0,0,1,265.19,254.44Z"/><path class="cls-2" d="M230.12,225l.06-.06h0a1.91,1.91,0,0,0,.13-.23,3.81,3.81,0,0,0,.07-.84v-7.35c-1.19.78-2.4,1.53-3.64,2.25Z"/><path class="cls-2" d="M251.54,196.85A84.27,84.27,0,0,1,241.42,208l.05,0a5.52,5.52,0,0,1,3.16,2.19,6.69,6.69,0,0,1,1.07,3.3c.06.79.09,1.74.09,2.92v23.67a112.45,112.45,0,0,0,20.4-17h-4.4c-1,0-1.84,0-2.53-.06a6.23,6.23,0,0,1-3.29-1.08,5.51,5.51,0,0,1-2.11-3.27,14.2,14.2,0,0,1-.31-3.3,13.46,13.46,0,0,1,.32-3.29,5.39,5.39,0,0,1,2.1-3.21,6.35,6.35,0,0,1,3.19-1.11c.73-.06,1.59-.09,2.63-.09h0A56.68,56.68,0,0,0,251.54,196.85Z"/><path class="cls-2" d="M254.74,270.48l4.27,7.88a57.6,57.6,0,0,0,10.12-17.18A146.91,146.91,0,0,1,254.74,270.48Z"/><path class="cls-3" d="M287.4,223c-.69,0-1.52.06-2.53.06h-1.41c0,.27,0,.56,0,.87v19.93c1.77-1.78,3.49-3.61,5.16-5.47a56.67,56.67,0,0,0-.51-15.48A5.35,5.35,0,0,1,287.4,223Z"/><path class="cls-3" d="M283.38,249.21c0,.33,0,.64,0,.92a8.47,8.47,0,0,1-1.27,4.25,6.24,6.24,0,0,1-4,2.62,18.47,18.47,0,0,1-3.75.37,61.76,61.76,0,0,1-12.71,23.73,56.79,56.79,0,0,0,25.87-36C286.14,246.52,284.78,247.88,283.38,249.21Z"/><path class="cls-4" d="M266.46,207.62h11.9q1.35-2,2.59-4.13A56.4,56.4,0,0,0,260.1,183a85.87,85.87,0,0,1-6.33,10.78A60.33,60.33,0,0,1,266.46,207.62Z"/><path class="cls-4" d="M256.74,181.25a57.24,57.24,0,0,0-26.09-5.65,54.16,54.16,0,0,1-4.37,5.9,61.29,61.29,0,0,1,24.44,10A81.07,81.07,0,0,0,256.74,181.25Z"/><path class="cls-3" d="M221.75,180.88a52.11,52.11,0,0,0,4.1-5,56.51,56.51,0,0,0-18.38,5.23A62.1,62.1,0,0,1,221.75,180.88Z"/><path class="cls-5" d="M208.14,255.93a5.64,5.64,0,0,1-1.52-1.55,8.47,8.47,0,0,1-1.27-4.25c-.07-1.2-.11-2.75-.11-4.75V227.71l-1.77.44V248.6c0,1.18,0,2.13-.09,2.92a6.65,6.65,0,0,1-1.06,3.3,5.13,5.13,0,0,1-1.13,1.19l.77,1.11C204,256.78,206.08,256.39,208.14,255.93Z"/><path class="cls-5" d="M193.58,207.62h10.78a74.76,74.76,0,0,1,7.57.29,9.63,9.63,0,0,1,5.87,2.4l0,.05-8.39-15.49a55.71,55.71,0,0,1-12.85,4.78A57.28,57.28,0,0,0,193.58,207.62Z"/><path class="cls-5" d="M229.87,277.64A142.84,142.84,0,0,0,249.6,269l-6.27-11.59h-1c-2.17,0-4,0-5.51-.05a20,20,0,0,1-4.42-.54,8,8,0,0,1-3.76-2,6.84,6.84,0,0,1-.83-1c-1.93.79-3.88,1.52-5.83,2.2a6.91,6.91,0,0,1-2.46,1.05,13.91,13.91,0,0,1-1.52.24,114.33,114.33,0,0,1-13.44,3.27A56.79,56.79,0,0,0,229.87,277.64Z"/><path class="cls-5" d="M255.68,280.18l-4.27-7.88a144.12,144.12,0,0,1-15.3,7.06A57.58,57.58,0,0,0,255.68,280.18Z"/><path class="cls-5" d="M205.1,222.52c-.23,0-.47,0-.74,0l-.8,0c0,.47-.07,1.05-.08,1.73.58-.14,1.16-.29,1.73-.45A10.79,10.79,0,0,0,205.1,222.52Z"/><path class="cls-5" d="M224.83,250.13c0,.27,0,.52-.07.77l1.73-.69a21.89,21.89,0,0,1-.35-3.62c0-1.47-.06-3.33-.06-5.5V232.5a8.86,8.86,0,0,1,.58-3.42,9.32,9.32,0,0,1,.65-1.26l-3.89-7.17c-.92.48-1.84.95-2.78,1.4,0,.43,0,.87,0,1.32a4.3,4.3,0,0,0,.13,1.29,2.3,2.3,0,0,0,.27.56,5.78,5.78,0,0,0,.62.67,15.54,15.54,0,0,1,1.33,1.36,8.06,8.06,0,0,1,1.39,2.38,9.41,9.41,0,0,1,.55,3.41v12.34C224.94,247.37,224.91,248.92,224.83,250.13Z"/><path class="cls-5" d="M220.08,214.48a11.53,11.53,0,0,1,.28,1.63q.09.81.15,1.77l1.11-.57Z"/><path class="cls-5" d="M207.65,191.53,205,186.61a57.39,57.39,0,0,0-6,8.47A53,53,0,0,0,207.65,191.53Z"/><path class="cls-5" d="M187.18,222.49l-.74,0a16,16,0,0,0-.14,2.48v1.63l1.19,0c-.06-1.36-.07-2.73,0-4.09Z"/><path class="cls-5" d="M197.5,257.3c-.52.05-1.1.08-1.73.08a13.2,13.2,0,0,1-3.39-.36,5.49,5.49,0,0,1-3.21-2.2,6.51,6.51,0,0,1-1-3.39c0-.75-.06-1.68-.06-2.83V232.66c-.11-.76-.2-1.53-.28-2.3l-1.48.06V248.6c0,1.18,0,2.13-.09,2.92a6.66,6.66,0,0,1-1.07,3.3A5.54,5.54,0,0,1,182,257a9.58,9.58,0,0,1-1.23.24c.21.43.42.86.64,1.29a113.79,113.79,0,0,0,16.37-.82Z"/><path class="cls-5" d="M200.3,261.2a116.56,116.56,0,0,1-16.76,1.15,56.67,56.67,0,0,0,23.35,21.21,139.32,139.32,0,0,0,17.32-4.07A60.36,60.36,0,0,1,200.3,261.2Z"/><path class="cls-5" d="M230,281.6a143.08,143.08,0,0,1-16.78,4.6,56.74,56.74,0,0,0,43.37-2.37A61.6,61.6,0,0,1,230,281.6Z"/><path class="cls-5" d="M202.35,183.93a56.48,56.48,0,0,0-15,13.29,51.21,51.21,0,0,0,6.71-.9A61.35,61.35,0,0,1,202.35,183.93Z"/><path class="cls-5" d="M181.59,207.73c1.53-.07,3.41-.11,5.59-.11h2.51a61.36,61.36,0,0,1,2.45-7.1,56,56,0,0,1-7.62.61,57.58,57.58,0,0,0-3.78,6.66C181,207.76,181.3,207.74,181.59,207.73Z"/><path class="cls-6" d="M204.36,211q4.6,0,7.22.27a6.44,6.44,0,0,1,3.86,1.47,5.84,5.84,0,0,1,1.53,3.71,67.77,67.77,0,0,1,.27,6.89,7.57,7.57,0,0,0,.32,2.42,5.26,5.26,0,0,0,.81,1.53,8.3,8.3,0,0,0,1,1.1,12.73,12.73,0,0,1,1,1.05,4.66,4.66,0,0,1,.8,1.39,6,6,0,0,1,.32,2.18v12.34c0,1.9,0,3.41-.1,4.54a5.4,5.4,0,0,1-.7,2.57,2.93,2.93,0,0,1-1.91,1.18,23.34,23.34,0,0,1-7.46,0,2.91,2.91,0,0,1-1.9-1.18,5.18,5.18,0,0,1-.7-2.57c-.07-1.13-.11-2.64-.11-4.54V225a18.92,18.92,0,0,0-.21-3.17,4,4,0,0,0-.73-1.8,2.26,2.26,0,0,0-1.34-.78,10.62,10.62,0,0,0-2-.16,12.52,12.52,0,0,0-2.26.16,2,2,0,0,0-1.31.78,3.67,3.67,0,0,0-.59,1.8,29.06,29.06,0,0,0-.14,3.17V248.6c0,1.08,0,2-.08,2.66a3.32,3.32,0,0,1-.48,1.64,2.18,2.18,0,0,1-1.26.83,9.72,9.72,0,0,1-2.47.24,10.09,10.09,0,0,1-2.5-.24,2.14,2.14,0,0,1-1.28-.83,3.13,3.13,0,0,1-.46-1.64c0-.7-.05-1.58-.05-2.66V225a29.06,29.06,0,0,0-.14-3.17,3.77,3.77,0,0,0-.59-1.8,2,2,0,0,0-1.31-.78,12.59,12.59,0,0,0-2.26-.16,10.53,10.53,0,0,0-2,.16,2.25,2.25,0,0,0-1.31.78,3.85,3.85,0,0,0-.73,1.8,18.92,18.92,0,0,0-.21,3.17V248.6c0,1.08,0,2-.08,2.66a3.42,3.42,0,0,1-.49,1.64,2.15,2.15,0,0,1-1.26.83,9.67,9.67,0,0,1-2.47.24,10,10,0,0,1-2.49-.24,2.2,2.2,0,0,1-1.29-.83,3.22,3.22,0,0,1-.46-1.64c0-.7,0-1.58,0-2.66V224.45c0-2.15,0-4,0-5.48a17.49,17.49,0,0,1,.43-3.73,5.58,5.58,0,0,1,1.13-2.33,4.41,4.41,0,0,1,2.2-1.26,16.84,16.84,0,0,1,3.65-.51c1.47-.07,3.27-.11,5.42-.11Z"/><path class="cls-6" d="M229.49,232.5a5.57,5.57,0,0,1,.33-2.12,4.1,4.1,0,0,1,.8-1.29,6.43,6.43,0,0,1,1-.88,6.51,6.51,0,0,0,1-.89,4.1,4.1,0,0,0,.8-1.29,5.54,5.54,0,0,0,.33-2.12V216.4c0-1.08,0-2,.05-2.66a3.22,3.22,0,0,1,.46-1.64,2.2,2.2,0,0,1,1.29-.83,10,10,0,0,1,2.49-.24,9.72,9.72,0,0,1,2.47.24,2.18,2.18,0,0,1,1.26.83,3.32,3.32,0,0,1,.48,1.64c.06.7.09,1.58.09,2.66v22.54c0,1.61,0,2.86.1,3.73a2.4,2.4,0,0,0,2.61,2.6c.87.08,2.12.11,3.73.11h5.36c1.08,0,2,0,2.66.08a3.42,3.42,0,0,1,1.64.49,2.14,2.14,0,0,1,.83,1.28,10.09,10.09,0,0,1,.24,2.5,9.72,9.72,0,0,1-.24,2.47,2.18,2.18,0,0,1-.83,1.26,3.22,3.22,0,0,1-1.64.46c-.7,0-1.58.05-2.66.05h-11.8c-2.15,0-4,0-5.43-.05a16.83,16.83,0,0,1-3.65-.43,4.76,4.76,0,0,1-2.2-1.13,4.7,4.7,0,0,1-1.12-2.2,16.16,16.16,0,0,1-.43-3.65c0-1.47-.06-3.27-.06-5.42Z"/><path class="cls-7" d="M284.87,211c.93,0,1.71,0,2.33.08a3.07,3.07,0,0,1,1.51.48,2.18,2.18,0,0,1,.78,1.26,11.12,11.12,0,0,1,.21,2.47,11.42,11.42,0,0,1-.21,2.5,2.19,2.19,0,0,1-.78,1.29,2.78,2.78,0,0,1-1.51.45c-.62,0-1.4.06-2.33.06-1.22,0-2.15,0-2.79.08a2.36,2.36,0,0,0-1.42.48,1.81,1.81,0,0,0-.54,1.26c-.05.58-.08,1.4-.08,2.47v21.47c0,1.9,0,3.41-.11,4.54a5.18,5.18,0,0,1-.7,2.57,2.91,2.91,0,0,1-1.9,1.18,17.78,17.78,0,0,1-3.73.3,17.44,17.44,0,0,1-3.71-.3,3,3,0,0,1-1.9-1.18,5.16,5.16,0,0,1-.73-2.57c-.07-1.13-.1-2.64-.1-4.54V232.5a5.59,5.59,0,0,1,.32-2.12,4.1,4.1,0,0,1,.8-1.29,7.46,7.46,0,0,1,1-.88,6.51,6.51,0,0,0,1-.89,4.12,4.12,0,0,0,.81-1.29,5.76,5.76,0,0,0,.32-2.12c0-1.07,0-1.89-.08-2.47a1.65,1.65,0,0,0-1.74-1.74c-.58-.06-1.4-.08-2.47-.08h-5.37q-1.4,0-2.34-.06a2.78,2.78,0,0,1-1.5-.45,2.19,2.19,0,0,1-.78-1.29,11.42,11.42,0,0,1-.21-2.5,11.12,11.12,0,0,1,.21-2.47,2.18,2.18,0,0,1,.78-1.26,3.06,3.06,0,0,1,1.5-.48c.63-.05,1.41-.08,2.34-.08Z"/><rect class="cls-8" x="168.51" y="169.01" width="126.98" height="126.98"/></g></g></svg>